<svg width="155" height="52" viewBox="0 0 155 52" fill="none" xmlns="http://www.w3.org/2000/svg">
<rect x="8" y="46" width="46" height="147" transform="rotate(-90 8 46)" fill="#9372C4" fill-opacity="0.4"/>
<rect y="52" width="46" height="146" transform="rotate(-90 0 52)" fill="#DCD4E6" fill-opacity="0.8"/>
<path d="M59.5598 37.126C58.3718 37.126 57.2798 36.85 56.2838 36.298C55.2998 35.746 54.5138 34.978 53.9258 33.994C53.3498 32.998 53.0618 31.882 53.0618 30.646C53.0618 29.41 53.3498 28.3 53.9258 27.316C54.5138 26.332 55.2998 25.564 56.2838 25.012C57.2798 24.46 58.3718 24.184 59.5598 24.184C60.7478 24.184 61.8338 24.46 62.8178 25.012C63.8138 25.564 64.5938 26.332 65.1578 27.316C65.7338 28.3 66.0218 29.41 66.0218 30.646C66.0218 31.882 65.7338 32.998 65.1578 33.994C64.5818 34.978 63.8018 35.746 62.8178 36.298C61.8338 36.85 60.7478 37.126 59.5598 37.126ZM59.5598 34.318C60.5678 34.318 61.3718 33.982 61.9718 33.31C62.5838 32.638 62.8898 31.75 62.8898 30.646C62.8898 29.53 62.5838 28.642 61.9718 27.982C61.3718 27.31 60.5678 26.974 59.5598 26.974C58.5398 26.974 57.7238 27.304 57.1118 27.964C56.5118 28.624 56.2118 29.518 56.2118 30.646C56.2118 31.762 56.5118 32.656 57.1118 33.328C57.7238 33.988 58.5398 34.318 59.5598 34.318ZM75.6542 24.364V32.968C75.6542 34.3 75.2762 35.326 74.5202 36.046C73.7762 36.766 72.7682 37.126 71.4962 37.126C70.1642 37.126 69.0962 36.748 68.2922 35.992C67.4882 35.236 67.0862 34.162 67.0862 32.77H70.1462C70.1462 33.298 70.2542 33.7 70.4702 33.976C70.6862 34.24 70.9982 34.372 71.4062 34.372C71.7782 34.372 72.0662 34.252 72.2702 34.012C72.4742 33.772 72.5762 33.424 72.5762 32.968V24.364H75.6542ZM81.2184 24.364V37H78.1404V24.364H81.2184ZM89.893 37L87.265 32.23H86.527V37H83.449V24.364H88.615C89.611 24.364 90.457 24.538 91.153 24.886C91.861 25.234 92.389 25.714 92.737 26.326C93.085 26.926 93.259 27.598 93.259 28.342C93.259 29.182 93.019 29.932 92.539 30.592C92.071 31.252 91.375 31.72 90.451 31.996L93.367 37H89.893ZM86.527 30.052H88.435C88.999 30.052 89.419 29.914 89.695 29.638C89.983 29.362 90.127 28.972 90.127 28.468C90.127 27.988 89.983 27.61 89.695 27.334C89.419 27.058 88.999 26.92 88.435 26.92H86.527V30.052ZM103.057 34.768H98.3412L97.5852 37H94.3632L98.9352 24.364H102.499L107.071 37H103.813L103.057 34.768ZM102.265 32.392L100.699 27.766L99.1512 32.392H102.265Z" fill="#4C4C4C"/>
</svg>
