<svg width="225" height="85" viewBox="0 0 225 85" fill="none" xmlns="http://www.w3.org/2000/svg">
<rect x="0.5" y="0.5" width="224" height="84" stroke="#FFFCF5"/>
<path fill-rule="evenodd" clip-rule="evenodd" d="M62 42.5C62 38.0127 65.6377 34.375 70.125 34.375C74.6123 34.375 78.25 38.0127 78.25 42.5C78.25 46.9873 74.6123 50.625 70.125 50.625C65.6377 50.625 62 46.9873 62 42.5Z" fill="white"/>
<path fill-rule="evenodd" clip-rule="evenodd" d="M45.75 58.75C45.75 54.2627 49.3877 50.625 53.875 50.625H62V58.75C62 63.2373 58.3623 66.875 53.875 66.875C49.3877 66.875 45.75 63.2373 45.75 58.75Z" fill="#F3EAD2"/>
<path fill-rule="evenodd" clip-rule="evenodd" d="M62 18.125V34.375H70.125C74.6123 34.375 78.25 30.7373 78.25 26.25C78.25 21.7627 74.6123 18.125 70.125 18.125H62Z" fill="#EEE5D0"/>
<path fill-rule="evenodd" clip-rule="evenodd" d="M45.75 26.25C45.75 30.7373 49.3877 34.375 53.875 34.375H62V18.125H53.875C49.3877 18.125 45.75 21.7627 45.75 26.25Z" fill="#FFFCF5"/>
<path fill-rule="evenodd" clip-rule="evenodd" d="M45.75 42.5C45.75 46.9873 49.3877 50.625 53.875 50.625H62V34.375H53.875C49.3877 34.375 45.75 38.0127 45.75 42.5Z" fill="#E8E5DD"/>
<path d="M107.828 27.364H121.556V30.34H110.932V37.732H120.244V40.676H110.932V50.5H107.828V27.364ZM125.373 37.252H128.349V50.5H125.373V37.252ZM125.149 32.452C125.149 31.9827 125.331 31.588 125.693 31.268C126.077 30.948 126.493 30.788 126.941 30.788C127.389 30.788 127.784 30.948 128.125 31.268C128.488 31.588 128.669 31.9827 128.669 32.452C128.669 32.9427 128.488 33.348 128.125 33.668C127.784 33.9667 127.389 34.116 126.941 34.116C126.493 34.116 126.077 33.956 125.693 33.636C125.331 33.316 125.149 32.9213 125.149 32.452ZM139.866 57.06C138.885 57.06 138.021 56.9427 137.274 56.708C136.528 56.4947 135.845 56.1853 135.226 55.78C134.629 55.3747 134.053 54.916 133.498 54.404L135.226 52.388C135.93 53.0493 136.645 53.5613 137.37 53.924C138.096 54.2867 138.906 54.468 139.802 54.468C140.805 54.468 141.648 54.2973 142.33 53.956C143.034 53.636 143.568 53.1773 143.93 52.58C144.293 52.004 144.474 51.332 144.474 50.564L144.506 46.98L144.762 47.556C144.378 48.4733 143.685 49.252 142.682 49.892C141.68 50.5107 140.464 50.82 139.034 50.82C137.818 50.82 136.698 50.5107 135.674 49.892C134.672 49.2733 133.861 48.4413 133.242 47.396C132.645 46.3293 132.346 45.1347 132.346 43.812C132.346 42.4253 132.666 41.2093 133.306 40.164C133.946 39.0973 134.789 38.2547 135.834 37.636C136.88 37.0173 138.021 36.708 139.258 36.708C140.432 36.708 141.498 36.9533 142.458 37.444C143.44 37.9133 144.154 38.5213 144.602 39.268L144.442 39.812L144.762 37.252H147.482V50.596C147.482 51.7907 147.173 52.8787 146.554 53.86C145.936 54.8413 145.061 55.62 143.93 56.196C142.8 56.772 141.445 57.06 139.866 57.06ZM135.322 43.748C135.322 44.6013 135.525 45.38 135.93 46.084C136.336 46.788 136.88 47.3427 137.562 47.748C138.266 48.1533 139.045 48.356 139.898 48.356C140.688 48.356 141.392 48.2173 142.01 47.94C142.65 47.6413 143.184 47.2467 143.61 46.756C144.037 46.244 144.336 45.6573 144.506 44.996V42.372C144.314 41.732 143.994 41.1773 143.546 40.708C143.098 40.2173 142.565 39.844 141.946 39.588C141.328 39.3107 140.645 39.172 139.898 39.172C139.045 39.172 138.266 39.364 137.562 39.748C136.88 40.132 136.336 40.676 135.93 41.38C135.525 42.0627 135.322 42.852 135.322 43.748ZM155.279 37.252L155.535 40.228L155.407 39.972C155.898 38.9693 156.591 38.18 157.487 37.604C158.405 37.028 159.45 36.74 160.623 36.74C161.37 36.74 162.031 36.8573 162.607 37.092C163.183 37.3267 163.653 37.668 164.015 38.116C164.399 38.5427 164.645 39.076 164.751 39.716L164.591 39.812C165.103 38.852 165.807 38.1053 166.703 37.572C167.621 37.0173 168.581 36.74 169.583 36.74C170.885 36.74 171.909 37.1133 172.655 37.86C173.423 38.5853 173.818 39.5347 173.839 40.708V50.5H170.863V41.764C170.842 41.0813 170.671 40.516 170.351 40.068C170.053 39.5987 169.519 39.3427 168.751 39.3C167.983 39.3 167.29 39.5347 166.671 40.004C166.074 40.4733 165.605 41.0813 165.263 41.828C164.922 42.5533 164.741 43.3427 164.719 44.196V50.5H161.743V41.764C161.722 41.0813 161.541 40.516 161.199 40.068C160.879 39.5987 160.335 39.3427 159.567 39.3C158.778 39.3 158.085 39.5347 157.487 40.004C156.89 40.4733 156.421 41.0813 156.079 41.828C155.759 42.5747 155.599 43.3747 155.599 44.228V50.5H152.623V37.252H155.279ZM184.534 50.82C183.296 50.82 182.166 50.5533 181.141 50.02C180.139 49.4867 179.339 48.708 178.742 47.684C178.166 46.6387 177.878 45.3693 177.878 43.876C177.878 42.404 178.187 41.1347 178.806 40.068C179.424 38.98 180.246 38.148 181.27 37.572C182.315 36.996 183.456 36.708 184.694 36.708C185.931 36.708 186.976 36.996 187.83 37.572C188.683 38.1267 189.334 38.788 189.782 39.556L189.59 40.068L189.878 37.252H192.63V50.5H189.654V47.044L189.974 47.812C189.888 48.0253 189.696 48.3027 189.398 48.644C189.12 48.964 188.736 49.2947 188.246 49.636C187.776 49.9773 187.232 50.2653 186.614 50.5C185.995 50.7133 185.302 50.82 184.534 50.82ZM185.334 48.356C186.08 48.356 186.752 48.2173 187.35 47.94C187.947 47.6627 188.438 47.2787 188.822 46.788C189.227 46.276 189.504 45.668 189.654 44.964V42.372C189.483 41.732 189.184 41.1773 188.758 40.708C188.331 40.2173 187.819 39.844 187.222 39.588C186.624 39.3107 185.963 39.172 185.238 39.172C184.448 39.172 183.723 39.364 183.062 39.748C182.4 40.132 181.867 40.6653 181.462 41.348C181.078 42.0307 180.886 42.8307 180.886 43.748C180.886 44.6013 181.088 45.38 181.494 46.084C181.899 46.788 182.443 47.3427 183.126 47.748C183.808 48.1533 184.544 48.356 185.334 48.356Z" fill="#FFFCF5"/>
</svg>
