<svg width="225" height="85" viewBox="0 0 225 85" fill="none" xmlns="http://www.w3.org/2000/svg">
<rect x="0.5" y="0.5" width="224" height="84" stroke="#FFFCF5"/>
<path d="M26.0625 34.6458C26.0625 27.441 26.0625 23.8386 27.4647 21.0867C28.698 18.6661 30.6661 16.698 33.0867 15.4647C35.8386 14.0625 39.441 14.0625 46.6458 14.0625H62.3542C69.559 14.0625 73.1614 14.0625 75.9133 15.4647C78.3339 16.698 80.302 18.6661 81.5353 21.0867C82.9375 23.8386 82.9375 27.441 82.9375 34.6458V50.3542C82.9375 57.559 82.9375 61.1614 81.5353 63.9133C80.302 66.3339 78.3339 68.302 75.9133 69.5353C73.1614 70.9375 69.559 70.9375 62.3542 70.9375H46.6458C39.441 70.9375 35.8386 70.9375 33.0867 69.5353C30.6661 68.302 28.698 66.3339 27.4647 63.9133C26.0625 61.1614 26.0625 57.559 26.0625 50.3542V34.6458Z" fill="#FFFCF5"/>
<path d="M55.9312 55.947H40.8987C40.6442 55.947 40.517 55.8036 40.5172 55.5166V30.6678C40.489 30.4656 40.6635 30.2867 40.8606 30.3156H45.5153C45.6686 30.2934 45.8037 30.4348 45.7824 30.5896V51.0164H56.7325C56.9614 51.0164 57.0504 51.1338 56.9996 51.3686L56.3128 55.5949C56.3069 55.8077 56.1323 55.9449 55.9312 55.947Z" fill="#937EFF"/>
<path d="M59.7503 36.4711H63.9091C64.1384 36.4731 64.3443 36.6356 64.405 36.8624C64.7098 37.5565 64.7474 38.3935 64.7485 39.1428C65.4616 38.2911 66.3217 37.5814 67.2856 37.0493C68.3194 36.4493 69.4915 36.1452 70.6791 36.1688C70.8762 36.1399 71.0507 36.3188 71.0226 36.521V41.256C71.0226 41.4388 70.8949 41.5299 70.641 41.5299C68.8807 41.4053 66.1402 41.8319 64.8611 43.2517V55.5633C64.8611 55.7981 64.7593 55.9155 64.5558 55.9155H60.0937C59.8745 55.9478 59.6812 55.7454 59.7121 55.5242V42.156C59.7121 40.3647 59.7499 38.5195 59.4832 36.7451C59.4421 36.5818 59.5946 36.4299 59.7503 36.4711Z" fill="#937EFF"/>
<path d="M97.768 34L105.352 15.928H105.496L113.056 34H110.392L104.728 19.576L106.384 18.496L100.048 34H97.768ZM102.208 27.424H108.664L109.432 29.44H101.536L102.208 27.424ZM119.57 34.24C118.658 34.24 117.826 34.024 117.074 33.592C116.338 33.144 115.754 32.52 115.322 31.72C114.89 30.904 114.674 29.968 114.674 28.912C114.674 27.808 114.898 26.864 115.346 26.08C115.81 25.296 116.434 24.696 117.218 24.28C118.002 23.864 118.882 23.656 119.858 23.656C120.642 23.656 121.386 23.824 122.09 24.16C122.81 24.496 123.37 24.96 123.77 25.552L123.674 26.344V15.424H125.882V34H123.65V31.528L123.89 32.152C123.426 32.76 122.826 33.264 122.09 33.664C121.354 34.048 120.514 34.24 119.57 34.24ZM120.266 32.344C120.858 32.344 121.386 32.24 121.85 32.032C122.314 31.808 122.698 31.504 123.002 31.12C123.306 30.736 123.522 30.28 123.65 29.752V27.88C123.522 27.4 123.29 26.984 122.954 26.632C122.634 26.264 122.242 25.976 121.778 25.768C121.33 25.544 120.826 25.432 120.266 25.432C119.658 25.432 119.098 25.584 118.586 25.888C118.09 26.176 117.69 26.576 117.386 27.088C117.082 27.6 116.93 28.192 116.93 28.864C116.93 29.52 117.082 30.112 117.386 30.64C117.69 31.152 118.098 31.568 118.61 31.888C119.122 32.192 119.674 32.344 120.266 32.344ZM128.9 28.936C128.9 27.944 129.132 27.048 129.596 26.248C130.076 25.448 130.732 24.816 131.564 24.352C132.396 23.888 133.34 23.656 134.396 23.656C135.484 23.656 136.436 23.888 137.252 24.352C138.068 24.816 138.7 25.448 139.148 26.248C139.596 27.048 139.82 27.944 139.82 28.936C139.82 29.928 139.596 30.832 139.148 31.648C138.7 32.448 138.06 33.08 137.228 33.544C136.412 34.008 135.46 34.24 134.372 34.24C133.316 34.24 132.372 34.024 131.54 33.592C130.724 33.144 130.076 32.528 129.596 31.744C129.132 30.944 128.9 30.008 128.9 28.936ZM131.132 28.96C131.132 29.6 131.276 30.184 131.564 30.712C131.852 31.224 132.236 31.632 132.716 31.936C133.212 32.24 133.756 32.392 134.348 32.392C134.972 32.392 135.524 32.24 136.004 31.936C136.5 31.632 136.884 31.224 137.156 30.712C137.428 30.184 137.564 29.6 137.564 28.96C137.564 28.32 137.428 27.744 137.156 27.232C136.884 26.704 136.5 26.288 136.004 25.984C135.524 25.664 134.972 25.504 134.348 25.504C133.74 25.504 133.188 25.664 132.692 25.984C132.212 26.304 131.828 26.728 131.54 27.256C131.268 27.768 131.132 28.336 131.132 28.96ZM148.89 34.24C147.978 34.24 147.17 34.04 146.466 33.64C145.778 33.24 145.226 32.736 144.81 32.128L145.074 31.432V34H142.842V15.424H145.05V26.344L144.978 25.504C145.378 24.96 145.946 24.52 146.682 24.184C147.434 23.832 148.266 23.656 149.178 23.656C150.074 23.656 150.89 23.872 151.626 24.304C152.362 24.736 152.946 25.344 153.378 26.128C153.826 26.896 154.05 27.816 154.05 28.888C154.05 30.008 153.81 30.968 153.33 31.768C152.866 32.568 152.242 33.184 151.458 33.616C150.674 34.032 149.818 34.24 148.89 34.24ZM148.434 32.344C149.074 32.344 149.65 32.192 150.162 31.888C150.674 31.584 151.074 31.176 151.362 30.664C151.65 30.136 151.794 29.536 151.794 28.864C151.794 28.224 151.642 27.648 151.338 27.136C151.05 26.608 150.65 26.192 150.138 25.888C149.642 25.584 149.074 25.432 148.434 25.432C147.89 25.432 147.386 25.536 146.922 25.744C146.458 25.952 146.066 26.24 145.746 26.608C145.426 26.96 145.202 27.376 145.074 27.856V29.848C145.202 30.328 145.418 30.76 145.722 31.144C146.026 31.512 146.41 31.808 146.874 32.032C147.338 32.24 147.858 32.344 148.434 32.344ZM161.677 34.24C160.541 34.24 159.565 34.016 158.749 33.568C157.933 33.104 157.301 32.48 156.853 31.696C156.421 30.896 156.205 29.984 156.205 28.96C156.205 27.984 156.453 27.096 156.949 26.296C157.445 25.496 158.109 24.856 158.941 24.376C159.773 23.896 160.701 23.656 161.725 23.656C163.037 23.656 164.125 24.04 164.989 24.808C165.853 25.576 166.437 26.632 166.741 27.976L158.557 30.856L158.029 29.536L164.749 27.088L164.269 27.4C164.077 26.872 163.757 26.416 163.309 26.032C162.861 25.632 162.277 25.432 161.557 25.432C160.949 25.432 160.405 25.584 159.925 25.888C159.445 26.176 159.069 26.576 158.797 27.088C158.525 27.6 158.389 28.184 158.389 28.84C158.389 29.528 158.533 30.136 158.821 30.664C159.109 31.176 159.501 31.584 159.997 31.888C160.509 32.176 161.085 32.32 161.725 32.32C162.157 32.32 162.573 32.24 162.973 32.08C163.389 31.92 163.773 31.712 164.125 31.456L165.157 33.112C164.661 33.448 164.101 33.72 163.477 33.928C162.869 34.136 162.269 34.24 161.677 34.24Z" fill="#FFFCF5"/>
<path d="M99.712 45.96H100.888V61.872H110.224V63H99.712V45.96ZM113.597 53.616H114.725V63H113.597V53.616ZM113.357 50.16C113.357 49.936 113.445 49.752 113.621 49.608C113.797 49.448 113.989 49.368 114.197 49.368C114.421 49.368 114.613 49.448 114.773 49.608C114.933 49.752 115.013 49.936 115.013 50.16C115.013 50.4 114.933 50.6 114.773 50.76C114.613 50.904 114.421 50.976 114.197 50.976C113.989 50.976 113.797 50.896 113.621 50.736C113.445 50.576 113.357 50.384 113.357 50.16ZM123.164 67.584C122.636 67.584 122.132 67.52 121.652 67.392C121.172 67.28 120.7 67.08 120.236 66.792C119.772 66.504 119.292 66.128 118.796 65.664L119.468 64.896C120.156 65.552 120.796 65.992 121.388 66.216C121.98 66.456 122.556 66.576 123.116 66.576C124.092 66.576 124.868 66.416 125.444 66.096C126.02 65.792 126.436 65.376 126.692 64.848C126.948 64.336 127.084 63.76 127.1 63.12L127.124 60.072L127.388 60.36C127.068 61.192 126.492 61.872 125.66 62.4C124.844 62.928 123.916 63.192 122.876 63.192C121.996 63.192 121.188 62.976 120.452 62.544C119.732 62.096 119.156 61.504 118.724 60.768C118.292 60.016 118.076 59.184 118.076 58.272C118.076 57.296 118.3 56.44 118.748 55.704C119.196 54.968 119.804 54.392 120.572 53.976C121.34 53.544 122.188 53.328 123.116 53.328C123.98 53.328 124.796 53.552 125.564 54C126.348 54.448 126.916 55.04 127.268 55.776L127.124 56.304L127.244 53.616H128.252V63.144C128.252 63.912 128.076 64.632 127.724 65.304C127.388 65.992 126.844 66.544 126.092 66.96C125.356 67.376 124.38 67.584 123.164 67.584ZM119.204 58.248C119.204 58.984 119.38 59.656 119.732 60.264C120.084 60.856 120.556 61.336 121.148 61.704C121.756 62.056 122.428 62.232 123.164 62.232C123.868 62.232 124.508 62.08 125.084 61.776C125.66 61.456 126.132 61.032 126.5 60.504C126.868 59.976 127.076 59.408 127.124 58.8V57.408C126.996 56.8 126.74 56.264 126.356 55.8C125.988 55.336 125.524 54.968 124.964 54.696C124.42 54.424 123.82 54.288 123.164 54.288C122.428 54.288 121.756 54.456 121.148 54.792C120.556 55.128 120.084 55.592 119.732 56.184C119.38 56.776 119.204 57.464 119.204 58.248ZM132.534 63V44.76H133.638V56.112L133.566 55.704C133.886 55.048 134.398 54.496 135.102 54.048C135.822 53.584 136.646 53.352 137.574 53.352C138.454 53.352 139.166 53.616 139.71 54.144C140.254 54.656 140.534 55.328 140.55 56.16V63H139.398V56.472C139.382 55.864 139.19 55.36 138.822 54.96C138.454 54.56 137.918 54.352 137.214 54.336C136.59 54.336 136.006 54.496 135.462 54.816C134.918 55.136 134.478 55.568 134.142 56.112C133.822 56.656 133.662 57.272 133.662 57.96V63H132.534ZM145.752 49.488H146.904V53.736H149.808V54.648H146.904V63H145.752V54.648H143.76V53.736H145.752V49.488ZM153.604 53.616L153.724 56.496L153.58 56.136C153.788 55.56 154.116 55.064 154.564 54.648C155.012 54.232 155.508 53.912 156.052 53.688C156.612 53.464 157.148 53.352 157.66 53.352L157.612 54.456C156.892 54.456 156.236 54.616 155.644 54.936C155.068 55.256 154.604 55.688 154.252 56.232C153.916 56.76 153.748 57.36 153.748 58.032V63H152.62V53.616H153.604ZM159.537 58.248C159.537 57.336 159.753 56.504 160.185 55.752C160.633 55 161.233 54.408 161.985 53.976C162.753 53.528 163.609 53.304 164.553 53.304C165.513 53.304 166.369 53.528 167.121 53.976C167.873 54.408 168.465 55 168.897 55.752C169.329 56.504 169.545 57.336 169.545 58.248C169.545 59.16 169.329 59.992 168.897 60.744C168.465 61.496 167.865 62.096 167.097 62.544C166.345 62.976 165.497 63.192 164.553 63.192C163.593 63.192 162.737 62.984 161.985 62.568C161.233 62.136 160.633 61.552 160.185 60.816C159.753 60.064 159.537 59.208 159.537 58.248ZM160.665 58.272C160.665 59.008 160.833 59.68 161.169 60.288C161.521 60.88 161.985 61.352 162.561 61.704C163.153 62.056 163.809 62.232 164.529 62.232C165.249 62.232 165.897 62.056 166.473 61.704C167.065 61.352 167.529 60.88 167.865 60.288C168.217 59.68 168.393 59.008 168.393 58.272C168.393 57.536 168.217 56.872 167.865 56.28C167.529 55.672 167.065 55.192 166.473 54.84C165.897 54.472 165.249 54.288 164.529 54.288C163.793 54.288 163.129 54.48 162.537 54.864C161.961 55.232 161.505 55.72 161.169 56.328C160.833 56.936 160.665 57.584 160.665 58.272ZM171.982 58.248C171.982 57.336 172.198 56.504 172.63 55.752C173.078 55 173.678 54.408 174.43 53.976C175.198 53.528 176.054 53.304 176.998 53.304C177.958 53.304 178.814 53.528 179.566 53.976C180.318 54.408 180.91 55 181.342 55.752C181.774 56.504 181.99 57.336 181.99 58.248C181.99 59.16 181.774 59.992 181.342 60.744C180.91 61.496 180.31 62.096 179.542 62.544C178.79 62.976 177.942 63.192 176.998 63.192C176.038 63.192 175.182 62.984 174.43 62.568C173.678 62.136 173.078 61.552 172.63 60.816C172.198 60.064 171.982 59.208 171.982 58.248ZM173.11 58.272C173.11 59.008 173.278 59.68 173.614 60.288C173.966 60.88 174.43 61.352 175.006 61.704C175.598 62.056 176.254 62.232 176.974 62.232C177.694 62.232 178.342 62.056 178.918 61.704C179.51 61.352 179.974 60.88 180.31 60.288C180.662 59.68 180.838 59.008 180.838 58.272C180.838 57.536 180.662 56.872 180.31 56.28C179.974 55.672 179.51 55.192 178.918 54.84C178.342 54.472 177.694 54.288 176.974 54.288C176.238 54.288 175.574 54.48 174.982 54.864C174.406 55.232 173.95 55.72 173.614 56.328C173.278 56.936 173.11 57.584 173.11 58.272ZM186.323 53.616L186.443 56.232L186.275 55.992C186.595 55.176 187.123 54.536 187.859 54.072C188.611 53.592 189.427 53.352 190.307 53.352C190.835 53.352 191.307 53.456 191.723 53.664C192.155 53.856 192.499 54.128 192.755 54.48C193.027 54.816 193.187 55.208 193.235 55.656L193.091 55.8C193.427 55 193.955 54.392 194.675 53.976C195.395 53.56 196.171 53.352 197.003 53.352C197.899 53.352 198.611 53.616 199.139 54.144C199.667 54.656 199.939 55.328 199.955 56.16V63H198.827V56.4C198.811 55.84 198.635 55.368 198.299 54.984C197.963 54.584 197.451 54.368 196.763 54.336C196.139 54.336 195.563 54.496 195.035 54.816C194.507 55.136 194.075 55.56 193.739 56.088C193.419 56.616 193.243 57.208 193.211 57.864V63H192.083V56.4C192.067 55.84 191.883 55.368 191.531 54.984C191.195 54.584 190.683 54.368 189.995 54.336C189.355 54.336 188.763 54.496 188.219 54.816C187.691 55.136 187.267 55.576 186.947 56.136C186.627 56.68 186.467 57.288 186.467 57.96V63H185.339V53.616H186.323Z" fill="#FFFCF5"/>
</svg>
