<svg width="225" height="85" viewBox="0 0 225 85" fill="none" xmlns="http://www.w3.org/2000/svg">
<rect x="0.5" y="0.5" width="224" height="84" stroke="#FFFCF5"/>
<path fill-rule="evenodd" clip-rule="evenodd" d="M38.0496 54.6255C33.9834 50.6571 33.9835 44.2231 38.0497 40.2547L49.0936 29.4763C52.531 26.1216 57.7738 25.6028 61.7695 27.9199C63.0056 28.6365 62.9948 30.2806 61.9781 31.2727C60.9617 32.2648 59.3022 32.1794 57.9224 31.7855C56.1555 31.2812 54.1684 31.709 52.775 33.069L41.731 43.8473C39.6979 45.8316 39.6978 49.0485 41.7309 51.0328C43.764 53.0171 47.0604 53.0171 49.0935 51.0328L71.1812 29.4765C75.2475 25.5081 81.84 25.508 85.9063 29.4764L96.9504 40.2547C101.017 44.2229 101.017 50.6571 96.9504 54.6255C92.8842 58.5939 86.2916 58.5939 82.2252 54.6255L78.544 51.0328L73.9424 55.5237C70.505 58.8784 65.2622 59.3972 61.2663 57.0801C60.0304 56.3635 60.0412 54.7195 61.0578 53.7273C62.0743 52.7352 63.7337 52.8205 65.1136 53.2144C66.8805 53.7188 68.8676 53.2909 70.261 51.9309L74.9942 47.3117C76.9547 45.3984 80.1332 45.3984 82.0938 47.3117L85.9066 51.0328C87.9397 53.0169 91.2359 53.0169 93.269 51.0328C95.3021 49.0485 95.3021 45.8316 93.269 43.8473L82.225 33.0692C80.1919 31.085 76.8956 31.085 74.8625 33.0692L52.7748 54.6256C48.7085 58.594 42.1158 58.594 38.0496 54.6255Z" fill="#FFFCF5"/>
<path d="M113.328 50.5V26.628H113.36L125.488 43.844L124.176 43.588L136.272 26.628H136.336V50.5H133.264V33.668L133.456 35.236L124.72 47.588H124.656L115.792 35.236L116.336 33.796V50.5H113.328ZM147.752 50.82C146.515 50.82 145.384 50.5533 144.36 50.02C143.358 49.4867 142.558 48.708 141.96 47.684C141.384 46.6387 141.096 45.3693 141.096 43.876C141.096 42.404 141.406 41.1347 142.024 40.068C142.643 38.98 143.464 38.148 144.488 37.572C145.534 36.996 146.675 36.708 147.912 36.708C149.15 36.708 150.195 36.996 151.048 37.572C151.902 38.1267 152.552 38.788 153 39.556L152.808 40.068L153.096 37.252H155.848V50.5H152.872V47.044L153.192 47.812C153.107 48.0253 152.915 48.3027 152.616 48.644C152.339 48.964 151.955 49.2947 151.464 49.636C150.995 49.9773 150.451 50.2653 149.832 50.5C149.214 50.7133 148.52 50.82 147.752 50.82ZM148.552 48.356C149.299 48.356 149.971 48.2173 150.568 47.94C151.166 47.6627 151.656 47.2787 152.04 46.788C152.446 46.276 152.723 45.668 152.872 44.964V42.372C152.702 41.732 152.403 41.1773 151.976 40.708C151.55 40.2173 151.038 39.844 150.44 39.588C149.843 39.3107 149.182 39.172 148.456 39.172C147.667 39.172 146.942 39.364 146.28 39.748C145.619 40.132 145.086 40.6653 144.68 41.348C144.296 42.0307 144.104 42.8307 144.104 43.748C144.104 44.6013 144.307 45.38 144.712 46.084C145.118 46.788 145.662 47.3427 146.344 47.748C147.027 48.1533 147.763 48.356 148.552 48.356ZM162.214 39.684C161.553 39.684 160.988 39.4813 160.518 39.076C160.049 38.6707 159.814 38.0627 159.814 37.252V36.004H162.086V36.42C162.086 36.7613 162.172 36.9853 162.342 37.092C162.513 37.1987 162.79 37.252 163.174 37.252H171.654L163.718 48.676L163.142 48.036H171.558V50.5H159.302L167.398 38.852L167.91 39.684H162.214ZM181.955 50.82C180.44 50.82 179.139 50.5213 178.051 49.924C176.963 49.3053 176.12 48.4733 175.523 47.428C174.947 46.3613 174.659 45.1453 174.659 43.78C174.659 42.4787 174.989 41.2947 175.651 40.228C176.312 39.1613 177.197 38.308 178.307 37.668C179.416 37.028 180.653 36.708 182.019 36.708C183.768 36.708 185.219 37.22 186.371 38.244C187.523 39.268 188.301 40.676 188.707 42.468L177.795 46.308L177.091 44.548L186.051 41.284L185.411 41.7C185.155 40.996 184.728 40.388 184.131 39.876C183.533 39.3427 182.755 39.076 181.795 39.076C180.984 39.076 180.259 39.2787 179.619 39.684C178.979 40.068 178.477 40.6013 178.115 41.284C177.752 41.9667 177.571 42.7453 177.571 43.62C177.571 44.5373 177.763 45.348 178.147 46.052C178.531 46.7347 179.053 47.2787 179.715 47.684C180.397 48.068 181.165 48.26 182.019 48.26C182.595 48.26 183.149 48.1533 183.683 47.94C184.237 47.7267 184.749 47.4493 185.219 47.108L186.595 49.316C185.933 49.764 185.187 50.1267 184.355 50.404C183.544 50.6813 182.744 50.82 181.955 50.82Z" fill="#FFFCF5"/>
</svg>
