<svg width="225" height="85" viewBox="0 0 225 85" fill="none" xmlns="http://www.w3.org/2000/svg">
<rect x="0.5" y="0.5" width="224" height="84" stroke="#FFFCF5"/>
<g clip-path="url(#clip0_5237_1104)">
<path d="M36.0625 34.6458C36.0625 27.441 36.0625 23.8386 37.4647 21.0867C38.698 18.6661 40.6661 16.698 43.0867 15.4647C45.8386 14.0625 49.441 14.0625 56.6458 14.0625H72.3542C79.559 14.0625 83.1614 14.0625 85.9133 15.4647C88.3339 16.698 90.302 18.6661 91.5353 21.0867C92.9375 23.8386 92.9375 27.441 92.9375 34.6458V50.3542C92.9375 57.559 92.9375 61.1614 91.5353 63.9133C90.302 66.3339 88.3339 68.302 85.9133 69.5353C83.1614 70.9375 79.559 70.9375 72.3542 70.9375H56.6458C49.441 70.9375 45.8386 70.9375 43.0867 69.5353C40.6661 68.302 38.698 66.3339 37.4647 63.9133C36.0625 61.1614 36.0625 57.559 36.0625 50.3542V34.6458Z" fill="#FFFCF5"/>
<path d="M58.0319 48.3942H49.1886L47.3893 54.3207C47.3394 54.5404 47.1432 54.6961 46.9299 54.6853H42.4508C42.1954 54.6853 42.1061 54.5367 42.1829 54.2396L49.8394 30.9997C49.916 30.7566 49.9925 30.519 50.0691 30.2081C50.1693 29.6676 50.2205 29.1182 50.2223 28.5674C50.2003 28.4046 50.3364 28.2605 50.4902 28.2837H56.5771C56.7554 28.2837 56.8575 28.3513 56.8834 28.4863L65.5737 54.2801C65.6502 54.5504 65.5736 54.6855 65.3439 54.6853H60.3671C60.1925 54.7058 60.0259 54.5823 59.9843 54.4017L58.0319 48.3942ZM50.5667 43.3972H56.6154C55.6216 39.8932 54.5001 36.4352 53.5911 32.9039C52.5611 36.567 51.6099 39.9642 50.5667 43.3972Z" fill="#937EFF"/>
<path d="M84.8062 34.4422V49.5136C84.8062 49.9725 84.8126 50.4857 84.8253 51.0531C84.8385 51.6203 84.8576 52.1605 84.8828 52.6737C84.9085 53.1865 84.934 53.5917 84.9593 53.8892C85.0298 54.0802 84.8628 54.2272 84.6914 54.2133H80.7099C79.9917 54.2383 79.8705 53.1325 79.8294 52.5522C79.0892 53.2384 78.2315 53.7679 77.3027 54.112C76.3793 54.4503 75.4087 54.6215 74.4316 54.6184C73.6706 54.6147 72.915 54.4848 72.192 54.2335C71.3575 53.9511 70.5963 53.4674 69.9685 52.8206C69.3407 52.1738 68.8634 51.3815 68.5742 50.5062C68.1914 49.4661 68 48.1224 68 46.475V34.4421C68 34.199 68.1021 34.0775 68.3063 34.0775H72.9385C73.1583 34.0441 73.3529 34.2501 73.3214 34.4827V45.9888C73.2986 46.6955 73.4159 47.3993 73.6659 48.055C74.6696 50.5416 77.9325 49.9958 79.4849 48.4602V34.4422C79.4849 34.1991 79.587 34.0775 79.7912 34.0775L84.4617 34.0775C84.6594 34.0476 84.8344 34.2329 84.8062 34.4422Z" fill="#937EFF"/>
</g>
<path d="M107.768 34L115.352 15.928H115.496L123.056 34H120.392L114.728 19.576L116.384 18.496L110.048 34H107.768ZM112.208 27.424H118.664L119.432 29.44H111.536L112.208 27.424ZM129.57 34.24C128.658 34.24 127.826 34.024 127.074 33.592C126.338 33.144 125.754 32.52 125.322 31.72C124.89 30.904 124.674 29.968 124.674 28.912C124.674 27.808 124.898 26.864 125.346 26.08C125.81 25.296 126.434 24.696 127.218 24.28C128.002 23.864 128.882 23.656 129.858 23.656C130.642 23.656 131.386 23.824 132.09 24.16C132.81 24.496 133.37 24.96 133.77 25.552L133.674 26.344V15.424H135.882V34H133.65V31.528L133.89 32.152C133.426 32.76 132.826 33.264 132.09 33.664C131.354 34.048 130.514 34.24 129.57 34.24ZM130.266 32.344C130.858 32.344 131.386 32.24 131.85 32.032C132.314 31.808 132.698 31.504 133.002 31.12C133.306 30.736 133.522 30.28 133.65 29.752V27.88C133.522 27.4 133.29 26.984 132.954 26.632C132.634 26.264 132.242 25.976 131.778 25.768C131.33 25.544 130.826 25.432 130.266 25.432C129.658 25.432 129.098 25.584 128.586 25.888C128.09 26.176 127.69 26.576 127.386 27.088C127.082 27.6 126.93 28.192 126.93 28.864C126.93 29.52 127.082 30.112 127.386 30.64C127.69 31.152 128.098 31.568 128.61 31.888C129.122 32.192 129.674 32.344 130.266 32.344ZM138.9 28.936C138.9 27.944 139.132 27.048 139.596 26.248C140.076 25.448 140.732 24.816 141.564 24.352C142.396 23.888 143.34 23.656 144.396 23.656C145.484 23.656 146.436 23.888 147.252 24.352C148.068 24.816 148.7 25.448 149.148 26.248C149.596 27.048 149.82 27.944 149.82 28.936C149.82 29.928 149.596 30.832 149.148 31.648C148.7 32.448 148.06 33.08 147.228 33.544C146.412 34.008 145.46 34.24 144.372 34.24C143.316 34.24 142.372 34.024 141.54 33.592C140.724 33.144 140.076 32.528 139.596 31.744C139.132 30.944 138.9 30.008 138.9 28.936ZM141.132 28.96C141.132 29.6 141.276 30.184 141.564 30.712C141.852 31.224 142.236 31.632 142.716 31.936C143.212 32.24 143.756 32.392 144.348 32.392C144.972 32.392 145.524 32.24 146.004 31.936C146.5 31.632 146.884 31.224 147.156 30.712C147.428 30.184 147.564 29.6 147.564 28.96C147.564 28.32 147.428 27.744 147.156 27.232C146.884 26.704 146.5 26.288 146.004 25.984C145.524 25.664 144.972 25.504 144.348 25.504C143.74 25.504 143.188 25.664 142.692 25.984C142.212 26.304 141.828 26.728 141.54 27.256C141.268 27.768 141.132 28.336 141.132 28.96ZM158.89 34.24C157.978 34.24 157.17 34.04 156.466 33.64C155.778 33.24 155.226 32.736 154.81 32.128L155.074 31.432V34H152.842V15.424H155.05V26.344L154.978 25.504C155.378 24.96 155.946 24.52 156.682 24.184C157.434 23.832 158.266 23.656 159.178 23.656C160.074 23.656 160.89 23.872 161.626 24.304C162.362 24.736 162.946 25.344 163.378 26.128C163.826 26.896 164.05 27.816 164.05 28.888C164.05 30.008 163.81 30.968 163.33 31.768C162.866 32.568 162.242 33.184 161.458 33.616C160.674 34.032 159.818 34.24 158.89 34.24ZM158.434 32.344C159.074 32.344 159.65 32.192 160.162 31.888C160.674 31.584 161.074 31.176 161.362 30.664C161.65 30.136 161.794 29.536 161.794 28.864C161.794 28.224 161.642 27.648 161.338 27.136C161.05 26.608 160.65 26.192 160.138 25.888C159.642 25.584 159.074 25.432 158.434 25.432C157.89 25.432 157.386 25.536 156.922 25.744C156.458 25.952 156.066 26.24 155.746 26.608C155.426 26.96 155.202 27.376 155.074 27.856V29.848C155.202 30.328 155.418 30.76 155.722 31.144C156.026 31.512 156.41 31.808 156.874 32.032C157.338 32.24 157.858 32.344 158.434 32.344ZM171.677 34.24C170.541 34.24 169.565 34.016 168.749 33.568C167.933 33.104 167.301 32.48 166.853 31.696C166.421 30.896 166.205 29.984 166.205 28.96C166.205 27.984 166.453 27.096 166.949 26.296C167.445 25.496 168.109 24.856 168.941 24.376C169.773 23.896 170.701 23.656 171.725 23.656C173.037 23.656 174.125 24.04 174.989 24.808C175.853 25.576 176.437 26.632 176.741 27.976L168.557 30.856L168.029 29.536L174.749 27.088L174.269 27.4C174.077 26.872 173.757 26.416 173.309 26.032C172.861 25.632 172.277 25.432 171.557 25.432C170.949 25.432 170.405 25.584 169.925 25.888C169.445 26.176 169.069 26.576 168.797 27.088C168.525 27.6 168.389 28.184 168.389 28.84C168.389 29.528 168.533 30.136 168.821 30.664C169.109 31.176 169.501 31.584 169.997 31.888C170.509 32.176 171.085 32.32 171.725 32.32C172.157 32.32 172.573 32.24 172.973 32.08C173.389 31.92 173.773 31.712 174.125 31.456L175.157 33.112C174.661 33.448 174.101 33.72 173.477 33.928C172.869 34.136 172.269 34.24 171.677 34.24Z" fill="#FFFCF5"/>
<path d="M108.224 63L115.424 45.216H115.52L122.72 63H121.4L115.136 47.088L115.952 46.632L109.4 63H108.224ZM111.704 56.256H119.264L119.6 57.36H111.416L111.704 56.256ZM129.033 63.264C128.153 63.264 127.449 63.008 126.921 62.496C126.393 61.968 126.113 61.288 126.081 60.456V53.616H127.209V60.12C127.241 60.728 127.433 61.232 127.785 61.632C128.153 62.032 128.697 62.248 129.417 62.28C130.025 62.28 130.593 62.12 131.121 61.8C131.649 61.48 132.073 61.048 132.393 60.504C132.729 59.944 132.897 59.312 132.897 58.608V53.616H134.025V63H133.017L132.897 60.048L133.065 60.696C132.905 61.176 132.617 61.616 132.201 62.016C131.801 62.4 131.321 62.704 130.761 62.928C130.217 63.152 129.641 63.264 129.033 63.264ZM142.132 63.192C141.252 63.192 140.452 62.984 139.732 62.568C139.012 62.136 138.436 61.544 138.004 60.792C137.588 60.04 137.38 59.192 137.38 58.248C137.38 57.24 137.596 56.368 138.028 55.632C138.46 54.896 139.044 54.328 139.78 53.928C140.532 53.528 141.356 53.328 142.252 53.328C143.148 53.328 143.996 53.56 144.796 54.024C145.612 54.488 146.204 55.096 146.572 55.848L146.38 56.376V44.76H147.508V63H146.356V60.12L146.596 60.648C146.196 61.4 145.596 62.016 144.796 62.496C143.996 62.96 143.108 63.192 142.132 63.192ZM142.42 62.208C143.14 62.208 143.788 62.056 144.364 61.752C144.94 61.432 145.404 61.008 145.756 60.48C146.108 59.936 146.308 59.328 146.356 58.656V57.456C146.244 56.848 145.996 56.304 145.612 55.824C145.228 55.344 144.764 54.968 144.22 54.696C143.676 54.408 143.076 54.264 142.42 54.264C141.7 54.264 141.044 54.432 140.452 54.768C139.86 55.104 139.388 55.568 139.036 56.16C138.684 56.752 138.508 57.44 138.508 58.224C138.508 58.96 138.684 59.632 139.036 60.24C139.388 60.832 139.86 61.312 140.452 61.68C141.06 62.032 141.716 62.208 142.42 62.208ZM151.769 53.616H152.897V63H151.769V53.616ZM151.529 50.16C151.529 49.936 151.617 49.752 151.793 49.608C151.969 49.448 152.161 49.368 152.369 49.368C152.593 49.368 152.785 49.448 152.945 49.608C153.105 49.752 153.185 49.936 153.185 50.16C153.185 50.4 153.105 50.6 152.945 50.76C152.785 50.904 152.593 50.976 152.369 50.976C152.161 50.976 151.969 50.896 151.793 50.736C151.617 50.576 151.529 50.384 151.529 50.16ZM158.095 49.488H159.247V53.736H162.151V54.648H159.247V63H158.095V54.648H156.103V53.736H158.095V49.488ZM164.964 53.616H166.092V63H164.964V53.616ZM164.724 50.16C164.724 49.936 164.812 49.752 164.988 49.608C165.164 49.448 165.356 49.368 165.564 49.368C165.788 49.368 165.98 49.448 166.14 49.608C166.3 49.752 166.38 49.936 166.38 50.16C166.38 50.4 166.3 50.6 166.14 50.76C165.98 50.904 165.788 50.976 165.564 50.976C165.356 50.976 165.164 50.896 164.988 50.736C164.812 50.576 164.724 50.384 164.724 50.16ZM169.443 58.248C169.443 57.336 169.659 56.504 170.091 55.752C170.539 55 171.139 54.408 171.891 53.976C172.659 53.528 173.515 53.304 174.459 53.304C175.419 53.304 176.275 53.528 177.027 53.976C177.779 54.408 178.371 55 178.803 55.752C179.235 56.504 179.451 57.336 179.451 58.248C179.451 59.16 179.235 59.992 178.803 60.744C178.371 61.496 177.771 62.096 177.003 62.544C176.251 62.976 175.403 63.192 174.459 63.192C173.499 63.192 172.643 62.984 171.891 62.568C171.139 62.136 170.539 61.552 170.091 60.816C169.659 60.064 169.443 59.208 169.443 58.248ZM170.571 58.272C170.571 59.008 170.739 59.68 171.075 60.288C171.427 60.88 171.891 61.352 172.467 61.704C173.059 62.056 173.715 62.232 174.435 62.232C175.155 62.232 175.803 62.056 176.379 61.704C176.971 61.352 177.435 60.88 177.771 60.288C178.123 59.68 178.299 59.008 178.299 58.272C178.299 57.536 178.123 56.872 177.771 56.28C177.435 55.672 176.971 55.192 176.379 54.84C175.803 54.472 175.155 54.288 174.435 54.288C173.699 54.288 173.035 54.48 172.443 54.864C171.867 55.232 171.411 55.72 171.075 56.328C170.739 56.936 170.571 57.584 170.571 58.272ZM183.784 53.616L183.904 56.568L183.76 55.992C184.032 55.176 184.544 54.536 185.296 54.072C186.064 53.592 186.912 53.352 187.84 53.352C188.72 53.352 189.432 53.616 189.976 54.144C190.52 54.656 190.8 55.328 190.816 56.16V63H189.664V56.472C189.648 55.864 189.456 55.36 189.088 54.96C188.72 54.56 188.184 54.352 187.48 54.336C186.856 54.336 186.272 54.488 185.728 54.792C185.184 55.096 184.744 55.52 184.408 56.064C184.088 56.608 183.928 57.24 183.928 57.96V63H182.8V53.616H183.784Z" fill="#FFFCF5"/>
<defs>
<clipPath id="clip0_5237_1104">
<rect width="65" height="65" fill="white" transform="translate(32 10)"/>
</clipPath>
</defs>
</svg>
