<svg width="225" height="85" viewBox="0 0 225 85" fill="none" xmlns="http://www.w3.org/2000/svg">
<rect x="0.5" y="0.5" width="224" height="84" stroke="#FFFCF5"/>
<path d="M34.5625 34.6458C34.5625 27.441 34.5625 23.8386 35.9647 21.0867C37.198 18.6661 39.1661 16.698 41.5867 15.4647C44.3386 14.0625 47.941 14.0625 55.1458 14.0625H70.8542C78.059 14.0625 81.6614 14.0625 84.4133 15.4647C86.8339 16.698 88.802 18.6661 90.0353 21.0867C91.4375 23.8386 91.4375 27.441 91.4375 34.6458V50.3542C91.4375 57.559 91.4375 61.1614 90.0353 63.9133C88.802 66.3339 86.8339 68.302 84.4133 69.5353C81.6614 70.9375 78.059 70.9375 70.8542 70.9375H55.1458C47.941 70.9375 44.3386 70.9375 41.5867 69.5353C39.1661 68.302 37.198 66.3339 35.9647 63.9133C34.5625 61.1614 34.5625 57.559 34.5625 50.3542V34.6458Z" fill="#FFFCF5"/>
<path d="M54.0464 30.7096V55.6366C54.0464 55.8977 53.932 56.0282 53.7031 56.028H49.0864C48.8826 56.028 48.7809 55.8975 48.7813 55.6366V30.7096C48.7813 30.5011 48.8957 30.3967 49.1246 30.3965H53.7412C53.9163 30.371 54.0713 30.53 54.0464 30.7096Z" fill="#937EFF"/>
<path d="M67.7055 56.4192C65.9494 56.4466 64.2093 56.0723 62.6119 55.3235C59.2206 53.7136 57.747 50.1508 57.7474 46.4797C57.7181 42.8176 59.6577 39.3283 62.8219 37.5967C65.006 36.3558 67.5753 36.0405 70.0328 36.2662V28.5572C70.0328 28.375 70.1092 28.2833 70.2618 28.2833H75.0691C75.2005 28.264 75.3168 28.3833 75.2981 28.5181V51.6451C75.2981 52.5993 75.3926 53.5501 75.4507 54.5017C75.4601 54.6643 75.366 54.825 75.2217 54.893C73.9815 55.4235 72.6897 55.817 71.3683 56.0669C70.16 56.2957 68.9342 56.4136 67.7055 56.4192ZM70.0328 51.5668V40.8838C66.5638 39.9199 63.1647 42.5685 63.1652 46.2448C63.0813 50.095 66.5142 52.6223 70.0328 51.5668Z" fill="#937EFF"/>
<path d="M106.268 34L113.852 15.928H113.996L121.556 34H118.892L113.228 19.576L114.884 18.496L108.548 34H106.268ZM110.708 27.424H117.164L117.932 29.44H110.036L110.708 27.424ZM128.07 34.24C127.158 34.24 126.326 34.024 125.574 33.592C124.838 33.144 124.254 32.52 123.822 31.72C123.39 30.904 123.174 29.968 123.174 28.912C123.174 27.808 123.398 26.864 123.846 26.08C124.31 25.296 124.934 24.696 125.718 24.28C126.502 23.864 127.382 23.656 128.358 23.656C129.142 23.656 129.886 23.824 130.59 24.16C131.31 24.496 131.87 24.96 132.27 25.552L132.174 26.344V15.424H134.382V34H132.15V31.528L132.39 32.152C131.926 32.76 131.326 33.264 130.59 33.664C129.854 34.048 129.014 34.24 128.07 34.24ZM128.766 32.344C129.358 32.344 129.886 32.24 130.35 32.032C130.814 31.808 131.198 31.504 131.502 31.12C131.806 30.736 132.022 30.28 132.15 29.752V27.88C132.022 27.4 131.79 26.984 131.454 26.632C131.134 26.264 130.742 25.976 130.278 25.768C129.83 25.544 129.326 25.432 128.766 25.432C128.158 25.432 127.598 25.584 127.086 25.888C126.59 26.176 126.19 26.576 125.886 27.088C125.582 27.6 125.43 28.192 125.43 28.864C125.43 29.52 125.582 30.112 125.886 30.64C126.19 31.152 126.598 31.568 127.11 31.888C127.622 32.192 128.174 32.344 128.766 32.344ZM137.4 28.936C137.4 27.944 137.632 27.048 138.096 26.248C138.576 25.448 139.232 24.816 140.064 24.352C140.896 23.888 141.84 23.656 142.896 23.656C143.984 23.656 144.936 23.888 145.752 24.352C146.568 24.816 147.2 25.448 147.648 26.248C148.096 27.048 148.32 27.944 148.32 28.936C148.32 29.928 148.096 30.832 147.648 31.648C147.2 32.448 146.56 33.08 145.728 33.544C144.912 34.008 143.96 34.24 142.872 34.24C141.816 34.24 140.872 34.024 140.04 33.592C139.224 33.144 138.576 32.528 138.096 31.744C137.632 30.944 137.4 30.008 137.4 28.936ZM139.632 28.96C139.632 29.6 139.776 30.184 140.064 30.712C140.352 31.224 140.736 31.632 141.216 31.936C141.712 32.24 142.256 32.392 142.848 32.392C143.472 32.392 144.024 32.24 144.504 31.936C145 31.632 145.384 31.224 145.656 30.712C145.928 30.184 146.064 29.6 146.064 28.96C146.064 28.32 145.928 27.744 145.656 27.232C145.384 26.704 145 26.288 144.504 25.984C144.024 25.664 143.472 25.504 142.848 25.504C142.24 25.504 141.688 25.664 141.192 25.984C140.712 26.304 140.328 26.728 140.04 27.256C139.768 27.768 139.632 28.336 139.632 28.96ZM157.39 34.24C156.478 34.24 155.67 34.04 154.966 33.64C154.278 33.24 153.726 32.736 153.31 32.128L153.574 31.432V34H151.342V15.424H153.55V26.344L153.478 25.504C153.878 24.96 154.446 24.52 155.182 24.184C155.934 23.832 156.766 23.656 157.678 23.656C158.574 23.656 159.39 23.872 160.126 24.304C160.862 24.736 161.446 25.344 161.878 26.128C162.326 26.896 162.55 27.816 162.55 28.888C162.55 30.008 162.31 30.968 161.83 31.768C161.366 32.568 160.742 33.184 159.958 33.616C159.174 34.032 158.318 34.24 157.39 34.24ZM156.934 32.344C157.574 32.344 158.15 32.192 158.662 31.888C159.174 31.584 159.574 31.176 159.862 30.664C160.15 30.136 160.294 29.536 160.294 28.864C160.294 28.224 160.142 27.648 159.838 27.136C159.55 26.608 159.15 26.192 158.638 25.888C158.142 25.584 157.574 25.432 156.934 25.432C156.39 25.432 155.886 25.536 155.422 25.744C154.958 25.952 154.566 26.24 154.246 26.608C153.926 26.96 153.702 27.376 153.574 27.856V29.848C153.702 30.328 153.918 30.76 154.222 31.144C154.526 31.512 154.91 31.808 155.374 32.032C155.838 32.24 156.358 32.344 156.934 32.344ZM170.177 34.24C169.041 34.24 168.065 34.016 167.249 33.568C166.433 33.104 165.801 32.48 165.353 31.696C164.921 30.896 164.705 29.984 164.705 28.96C164.705 27.984 164.953 27.096 165.449 26.296C165.945 25.496 166.609 24.856 167.441 24.376C168.273 23.896 169.201 23.656 170.225 23.656C171.537 23.656 172.625 24.04 173.489 24.808C174.353 25.576 174.937 26.632 175.241 27.976L167.057 30.856L166.529 29.536L173.249 27.088L172.769 27.4C172.577 26.872 172.257 26.416 171.809 26.032C171.361 25.632 170.777 25.432 170.057 25.432C169.449 25.432 168.905 25.584 168.425 25.888C167.945 26.176 167.569 26.576 167.297 27.088C167.025 27.6 166.889 28.184 166.889 28.84C166.889 29.528 167.033 30.136 167.321 30.664C167.609 31.176 168.001 31.584 168.497 31.888C169.009 32.176 169.585 32.32 170.225 32.32C170.657 32.32 171.073 32.24 171.473 32.08C171.889 31.92 172.273 31.712 172.625 31.456L173.657 33.112C173.161 33.448 172.601 33.72 171.977 33.928C171.369 34.136 170.769 34.24 170.177 34.24Z" fill="#FFFCF5"/>
<path d="M108.212 45.96H109.388V63H108.212V45.96ZM115.229 53.616L115.349 56.568L115.205 55.992C115.477 55.176 115.989 54.536 116.741 54.072C117.509 53.592 118.357 53.352 119.285 53.352C120.165 53.352 120.877 53.616 121.421 54.144C121.965 54.656 122.245 55.328 122.261 56.16V63H121.109V56.472C121.093 55.864 120.901 55.36 120.533 54.96C120.165 54.56 119.629 54.352 118.925 54.336C118.301 54.336 117.717 54.488 117.173 54.792C116.629 55.096 116.189 55.52 115.853 56.064C115.533 56.608 115.373 57.24 115.373 57.96V63H114.245V53.616H115.229ZM127.103 63V45.96H131.303C132.951 45.96 134.351 46.224 135.503 46.752C136.671 47.264 137.615 47.944 138.335 48.792C139.055 49.64 139.583 50.568 139.919 51.576C140.255 52.584 140.423 53.584 140.423 54.576C140.423 55.872 140.199 57.04 139.751 58.08C139.303 59.104 138.687 59.984 137.903 60.72C137.135 61.456 136.255 62.024 135.263 62.424C134.271 62.808 133.223 63 132.119 63H127.103ZM128.279 61.872H131.807C132.831 61.872 133.791 61.704 134.687 61.368C135.583 61.032 136.367 60.544 137.039 59.904C137.727 59.264 138.263 58.496 138.647 57.6C139.031 56.688 139.223 55.656 139.223 54.504C139.223 53.528 139.055 52.6 138.719 51.72C138.399 50.824 137.911 50.032 137.255 49.344C136.599 48.656 135.791 48.112 134.831 47.712C133.871 47.312 132.751 47.112 131.471 47.112H128.279V61.872ZM148.279 63.192C147.303 63.192 146.439 62.976 145.687 62.544C144.935 62.112 144.343 61.528 143.911 60.792C143.495 60.04 143.287 59.2 143.287 58.272C143.287 57.36 143.511 56.528 143.959 55.776C144.407 55.024 145.007 54.424 145.759 53.976C146.527 53.528 147.375 53.304 148.303 53.304C149.423 53.304 150.359 53.632 151.111 54.288C151.879 54.944 152.431 55.8 152.767 56.856L144.559 60.024L144.223 59.208L151.735 56.28L151.495 56.616C151.223 55.976 150.807 55.424 150.247 54.96C149.703 54.496 149.031 54.264 148.23 54.264C147.511 54.264 146.863 54.44 146.287 54.792C145.711 55.144 145.247 55.616 144.895 56.208C144.559 56.8 144.391 57.472 144.391 58.224C144.391 58.928 144.551 59.584 144.871 60.192C145.207 60.8 145.671 61.288 146.263 61.656C146.855 62.024 147.535 62.208 148.303 62.208C148.815 62.208 149.303 62.112 149.767 61.92C150.247 61.728 150.671 61.48 151.039 61.176L151.615 61.992C151.167 62.344 150.647 62.632 150.055 62.856C149.479 63.08 148.887 63.192 148.279 63.192ZM158.102 63.192C157.558 63.192 156.99 63.096 156.398 62.904C155.806 62.696 155.326 62.368 154.958 61.92L155.486 61.176C155.806 61.512 156.182 61.784 156.614 61.992C157.062 62.184 157.534 62.28 158.03 62.28C158.398 62.28 158.742 62.232 159.062 62.136C159.398 62.024 159.67 61.84 159.878 61.584C160.086 61.328 160.19 60.984 160.19 60.552C160.19 60.104 160.062 59.76 159.806 59.52C159.566 59.28 159.254 59.088 158.87 58.944C158.502 58.784 158.11 58.64 157.694 58.512C157.006 58.288 156.438 57.984 155.99 57.6C155.558 57.216 155.342 56.672 155.342 55.968C155.342 55.456 155.462 55.008 155.702 54.624C155.958 54.24 156.302 53.944 156.734 53.736C157.166 53.512 157.654 53.4 158.198 53.4C158.694 53.4 159.182 53.48 159.662 53.64C160.158 53.8 160.606 54.072 161.006 54.456L160.502 55.248C160.246 54.896 159.902 54.656 159.47 54.528C159.054 54.4 158.686 54.328 158.366 54.312C158.094 54.312 157.806 54.368 157.502 54.48C157.214 54.592 156.966 54.76 156.758 54.984C156.566 55.192 156.47 55.472 156.47 55.824C156.47 56.192 156.574 56.496 156.782 56.736C156.99 56.96 157.254 57.144 157.574 57.288C157.91 57.432 158.254 57.568 158.606 57.696C159.07 57.84 159.502 58.016 159.902 58.224C160.318 58.416 160.654 58.68 160.91 59.016C161.182 59.336 161.318 59.768 161.318 60.312C161.318 60.856 161.198 61.352 160.958 61.8C160.718 62.232 160.358 62.576 159.878 62.832C159.414 63.072 158.822 63.192 158.102 63.192ZM164.73 53.616H165.858V63H164.73V53.616ZM164.49 50.16C164.49 49.936 164.578 49.752 164.754 49.608C164.93 49.448 165.122 49.368 165.33 49.368C165.554 49.368 165.746 49.448 165.906 49.608C166.066 49.752 166.146 49.936 166.146 50.16C166.146 50.4 166.066 50.6 165.906 50.76C165.746 50.904 165.554 50.976 165.33 50.976C165.122 50.976 164.93 50.896 164.754 50.736C164.578 50.576 164.49 50.384 164.49 50.16ZM174.296 67.584C173.768 67.584 173.264 67.52 172.784 67.392C172.304 67.28 171.832 67.08 171.368 66.792C170.904 66.504 170.424 66.128 169.928 65.664L170.6 64.896C171.288 65.552 171.928 65.992 172.52 66.216C173.112 66.456 173.688 66.576 174.248 66.576C175.224 66.576 176 66.416 176.576 66.096C177.152 65.792 177.568 65.376 177.824 64.848C178.08 64.336 178.216 63.76 178.232 63.12L178.256 60.072L178.52 60.36C178.2 61.192 177.624 61.872 176.792 62.4C175.976 62.928 175.048 63.192 174.008 63.192C173.128 63.192 172.32 62.976 171.584 62.544C170.864 62.096 170.288 61.504 169.856 60.768C169.424 60.016 169.208 59.184 169.208 58.272C169.208 57.296 169.432 56.44 169.88 55.704C170.328 54.968 170.936 54.392 171.704 53.976C172.472 53.544 173.32 53.328 174.248 53.328C175.112 53.328 175.928 53.552 176.696 54C177.48 54.448 178.048 55.04 178.4 55.776L178.256 56.304L178.376 53.616H179.384V63.144C179.384 63.912 179.208 64.632 178.856 65.304C178.52 65.992 177.976 66.544 177.224 66.96C176.488 67.376 175.512 67.584 174.296 67.584ZM170.336 58.248C170.336 58.984 170.512 59.656 170.864 60.264C171.216 60.856 171.688 61.336 172.28 61.704C172.888 62.056 173.56 62.232 174.296 62.232C175 62.232 175.64 62.08 176.216 61.776C176.792 61.456 177.264 61.032 177.632 60.504C178 59.976 178.208 59.408 178.256 58.8V57.408C178.128 56.8 177.872 56.264 177.488 55.8C177.12 55.336 176.656 54.968 176.096 54.696C175.552 54.424 174.952 54.288 174.296 54.288C173.56 54.288 172.888 54.456 172.28 54.792C171.688 55.128 171.216 55.592 170.864 56.184C170.512 56.776 170.336 57.464 170.336 58.248ZM184.651 53.616L184.771 56.568L184.627 55.992C184.899 55.176 185.411 54.536 186.163 54.072C186.931 53.592 187.779 53.352 188.707 53.352C189.587 53.352 190.299 53.616 190.843 54.144C191.387 54.656 191.667 55.328 191.683 56.16V63H190.531V56.472C190.515 55.864 190.323 55.36 189.955 54.96C189.587 54.56 189.051 54.352 188.347 54.336C187.723 54.336 187.139 54.488 186.595 54.792C186.051 55.096 185.611 55.52 185.275 56.064C184.955 56.608 184.795 57.24 184.795 57.96V63H183.667V53.616H184.651Z" fill="#FFFCF5"/>
</svg>
