<svg width="225" height="85" viewBox="0 0 225 85" fill="none" xmlns="http://www.w3.org/2000/svg">
<rect x="0.5" y="0.5" width="224" height="84" stroke="#FFFCF5"/>
<path d="M26.0625 34.6458C26.0625 27.441 26.0625 23.8386 27.4647 21.0867C28.698 18.6661 30.6661 16.698 33.0867 15.4647C35.8386 14.0625 39.441 14.0625 46.6458 14.0625H62.3542C69.559 14.0625 73.1614 14.0625 75.9133 15.4647C78.3339 16.698 80.302 18.6661 81.5353 21.0867C82.9375 23.8386 82.9375 27.441 82.9375 34.6458V50.3542C82.9375 57.559 82.9375 61.1614 81.5353 63.9133C80.302 66.3339 78.3339 68.302 75.9133 69.5353C73.1614 70.9375 69.559 70.9375 62.3542 70.9375H46.6458C39.441 70.9375 35.8386 70.9375 33.0867 69.5353C30.6661 68.302 28.698 66.3339 27.4647 63.9133C26.0625 61.1614 26.0625 57.559 26.0625 50.3542V34.6458Z" fill="#FFFCF5"/>
<path d="M38.25 55.7361V30.7257C38.25 30.5556 38.3211 30.4583 38.487 30.4583C40.9359 30.4583 43.3837 30.3125 45.8333 30.3125C49.8081 30.3125 54.112 31.6716 55.6206 35.8299C55.976 36.8507 56.1656 37.8958 56.1656 38.9896C56.1656 41.0799 55.6917 42.8056 54.7438 44.1667C52.0958 47.9688 47.5064 47.9097 43.3924 47.9097V55.7118C43.4246 55.9428 43.2278 56.0521 43.037 56.0521H38.5344C38.3448 56.0521 38.25 55.9549 38.25 55.7361ZM43.4161 35.1493V43.316C45.0473 43.4355 46.7543 43.4484 48.3216 42.9271C50.0519 42.428 50.9995 40.9302 50.9995 39.1354C51.0476 37.6061 50.2142 36.1387 48.7956 35.5868C47.2471 34.943 45.0876 34.9044 43.4161 35.1493Z" fill="#937EFF"/>
<path d="M70.9463 41.7025C70.2293 41.3246 69.4656 41.0482 68.6762 40.8807C67.6617 40.642 63.6605 39.806 63.659 41.8981C63.6945 43.0662 65.5486 43.6384 66.3678 43.9721C69.2438 44.9595 72.4983 46.7244 72.4343 50.2724C72.5222 54.6892 68.2429 56.4548 64.5746 56.4552C62.665 56.475 60.6756 56.1792 58.9279 55.3595C58.761 55.2712 58.6536 55.0823 58.6608 54.8899V50.6637C58.642 50.4942 58.8238 50.3461 58.966 50.468C60.6784 51.5036 62.7081 52.0064 64.6891 52.0333C65.5636 52.0333 67.2967 51.9485 67.2836 50.6637C67.2836 49.4307 65.2103 48.8638 64.3838 48.5505C63.1858 48.1229 62.0499 47.5305 61.0072 46.7896C59.5501 45.7502 58.6359 44.0837 58.6608 42.2503C58.6523 38.0916 62.5914 36.2249 66.139 36.224C67.7974 36.2103 69.5783 36.3331 71.1221 37.0066C71.3441 37.072 71.3901 37.3058 71.3892 37.5153V41.4677C71.4033 41.713 71.1308 41.7965 70.9463 41.7025Z" fill="#937EFF"/>
<path d="M97.768 34L105.352 15.928H105.496L113.056 34H110.392L104.728 19.576L106.384 18.496L100.048 34H97.768ZM102.208 27.424H108.664L109.432 29.44H101.536L102.208 27.424ZM119.57 34.24C118.658 34.24 117.826 34.024 117.074 33.592C116.338 33.144 115.754 32.52 115.322 31.72C114.89 30.904 114.674 29.968 114.674 28.912C114.674 27.808 114.898 26.864 115.346 26.08C115.81 25.296 116.434 24.696 117.218 24.28C118.002 23.864 118.882 23.656 119.858 23.656C120.642 23.656 121.386 23.824 122.09 24.16C122.81 24.496 123.37 24.96 123.77 25.552L123.674 26.344V15.424H125.882V34H123.65V31.528L123.89 32.152C123.426 32.76 122.826 33.264 122.09 33.664C121.354 34.048 120.514 34.24 119.57 34.24ZM120.266 32.344C120.858 32.344 121.386 32.24 121.85 32.032C122.314 31.808 122.698 31.504 123.002 31.12C123.306 30.736 123.522 30.28 123.65 29.752V27.88C123.522 27.4 123.29 26.984 122.954 26.632C122.634 26.264 122.242 25.976 121.778 25.768C121.33 25.544 120.826 25.432 120.266 25.432C119.658 25.432 119.098 25.584 118.586 25.888C118.09 26.176 117.69 26.576 117.386 27.088C117.082 27.6 116.93 28.192 116.93 28.864C116.93 29.52 117.082 30.112 117.386 30.64C117.69 31.152 118.098 31.568 118.61 31.888C119.122 32.192 119.674 32.344 120.266 32.344ZM128.9 28.936C128.9 27.944 129.132 27.048 129.596 26.248C130.076 25.448 130.732 24.816 131.564 24.352C132.396 23.888 133.34 23.656 134.396 23.656C135.484 23.656 136.436 23.888 137.252 24.352C138.068 24.816 138.7 25.448 139.148 26.248C139.596 27.048 139.82 27.944 139.82 28.936C139.82 29.928 139.596 30.832 139.148 31.648C138.7 32.448 138.06 33.08 137.228 33.544C136.412 34.008 135.46 34.24 134.372 34.24C133.316 34.24 132.372 34.024 131.54 33.592C130.724 33.144 130.076 32.528 129.596 31.744C129.132 30.944 128.9 30.008 128.9 28.936ZM131.132 28.96C131.132 29.6 131.276 30.184 131.564 30.712C131.852 31.224 132.236 31.632 132.716 31.936C133.212 32.24 133.756 32.392 134.348 32.392C134.972 32.392 135.524 32.24 136.004 31.936C136.5 31.632 136.884 31.224 137.156 30.712C137.428 30.184 137.564 29.6 137.564 28.96C137.564 28.32 137.428 27.744 137.156 27.232C136.884 26.704 136.5 26.288 136.004 25.984C135.524 25.664 134.972 25.504 134.348 25.504C133.74 25.504 133.188 25.664 132.692 25.984C132.212 26.304 131.828 26.728 131.54 27.256C131.268 27.768 131.132 28.336 131.132 28.96ZM148.89 34.24C147.978 34.24 147.17 34.04 146.466 33.64C145.778 33.24 145.226 32.736 144.81 32.128L145.074 31.432V34H142.842V15.424H145.05V26.344L144.978 25.504C145.378 24.96 145.946 24.52 146.682 24.184C147.434 23.832 148.266 23.656 149.178 23.656C150.074 23.656 150.89 23.872 151.626 24.304C152.362 24.736 152.946 25.344 153.378 26.128C153.826 26.896 154.05 27.816 154.05 28.888C154.05 30.008 153.81 30.968 153.33 31.768C152.866 32.568 152.242 33.184 151.458 33.616C150.674 34.032 149.818 34.24 148.89 34.24ZM148.434 32.344C149.074 32.344 149.65 32.192 150.162 31.888C150.674 31.584 151.074 31.176 151.362 30.664C151.65 30.136 151.794 29.536 151.794 28.864C151.794 28.224 151.642 27.648 151.338 27.136C151.05 26.608 150.65 26.192 150.138 25.888C149.642 25.584 149.074 25.432 148.434 25.432C147.89 25.432 147.386 25.536 146.922 25.744C146.458 25.952 146.066 26.24 145.746 26.608C145.426 26.96 145.202 27.376 145.074 27.856V29.848C145.202 30.328 145.418 30.76 145.722 31.144C146.026 31.512 146.41 31.808 146.874 32.032C147.338 32.24 147.858 32.344 148.434 32.344ZM161.677 34.24C160.541 34.24 159.565 34.016 158.749 33.568C157.933 33.104 157.301 32.48 156.853 31.696C156.421 30.896 156.205 29.984 156.205 28.96C156.205 27.984 156.453 27.096 156.949 26.296C157.445 25.496 158.109 24.856 158.941 24.376C159.773 23.896 160.701 23.656 161.725 23.656C163.037 23.656 164.125 24.04 164.989 24.808C165.853 25.576 166.437 26.632 166.741 27.976L158.557 30.856L158.029 29.536L164.749 27.088L164.269 27.4C164.077 26.872 163.757 26.416 163.309 26.032C162.861 25.632 162.277 25.432 161.557 25.432C160.949 25.432 160.405 25.584 159.925 25.888C159.445 26.176 159.069 26.576 158.797 27.088C158.525 27.6 158.389 28.184 158.389 28.84C158.389 29.528 158.533 30.136 158.821 30.664C159.109 31.176 159.501 31.584 159.997 31.888C160.509 32.176 161.085 32.32 161.725 32.32C162.157 32.32 162.573 32.24 162.973 32.08C163.389 31.92 163.773 31.712 164.125 31.456L165.157 33.112C164.661 33.448 164.101 33.72 163.477 33.928C162.869 34.136 162.269 34.24 161.677 34.24Z" fill="#FFFCF5"/>
<path d="M103.648 45.96C104.704 45.96 105.624 46.144 106.408 46.512C107.208 46.864 107.824 47.4 108.256 48.12C108.704 48.824 108.928 49.712 108.928 50.784C108.928 51.424 108.824 52.048 108.616 52.656C108.424 53.248 108.104 53.784 107.656 54.264C107.224 54.744 106.664 55.128 105.976 55.416C105.304 55.704 104.488 55.848 103.528 55.848H100.888V63H99.712V45.96H103.648ZM103.528 54.72C104.36 54.72 105.048 54.592 105.592 54.336C106.152 54.064 106.584 53.728 106.888 53.328C107.208 52.912 107.432 52.48 107.56 52.032C107.704 51.584 107.776 51.168 107.776 50.784C107.776 50.24 107.688 49.744 107.512 49.296C107.336 48.848 107.072 48.464 106.72 48.144C106.384 47.808 105.968 47.552 105.472 47.376C104.976 47.184 104.408 47.088 103.768 47.088H100.888V54.72H103.528ZM112.425 63V44.76H113.529V56.112L113.457 55.704C113.777 55.048 114.289 54.496 114.993 54.048C115.713 53.584 116.537 53.352 117.465 53.352C118.345 53.352 119.057 53.616 119.601 54.144C120.145 54.656 120.425 55.328 120.441 56.16V63H119.289V56.472C119.273 55.864 119.081 55.36 118.713 54.96C118.345 54.56 117.809 54.352 117.105 54.336C116.481 54.336 115.897 54.496 115.353 54.816C114.809 55.136 114.369 55.568 114.033 56.112C113.713 56.656 113.553 57.272 113.553 57.96V63H112.425ZM123.794 58.248C123.794 57.336 124.01 56.504 124.442 55.752C124.89 55 125.49 54.408 126.242 53.976C127.01 53.528 127.866 53.304 128.81 53.304C129.77 53.304 130.626 53.528 131.378 53.976C132.13 54.408 132.722 55 133.154 55.752C133.586 56.504 133.802 57.336 133.802 58.248C133.802 59.16 133.586 59.992 133.154 60.744C132.722 61.496 132.122 62.096 131.354 62.544C130.602 62.976 129.754 63.192 128.81 63.192C127.85 63.192 126.994 62.984 126.242 62.568C125.49 62.136 124.89 61.552 124.442 60.816C124.01 60.064 123.794 59.208 123.794 58.248ZM124.922 58.272C124.922 59.008 125.09 59.68 125.426 60.288C125.778 60.88 126.242 61.352 126.818 61.704C127.41 62.056 128.066 62.232 128.786 62.232C129.506 62.232 130.154 62.056 130.73 61.704C131.322 61.352 131.786 60.88 132.122 60.288C132.474 59.68 132.65 59.008 132.65 58.272C132.65 57.536 132.474 56.872 132.122 56.28C131.786 55.672 131.322 55.192 130.73 54.84C130.154 54.472 129.506 54.288 128.786 54.288C128.05 54.288 127.386 54.48 126.794 54.864C126.218 55.232 125.762 55.72 125.426 56.328C125.09 56.936 124.922 57.584 124.922 58.272ZM138.088 49.488H139.24V53.736H142.144V54.648H139.24V63H138.088V54.648H136.096V53.736H138.088V49.488ZM144.044 58.248C144.044 57.336 144.26 56.504 144.692 55.752C145.14 55 145.74 54.408 146.492 53.976C147.26 53.528 148.116 53.304 149.06 53.304C150.02 53.304 150.876 53.528 151.628 53.976C152.38 54.408 152.972 55 153.404 55.752C153.836 56.504 154.052 57.336 154.052 58.248C154.052 59.16 153.836 59.992 153.404 60.744C152.972 61.496 152.372 62.096 151.604 62.544C150.852 62.976 150.004 63.192 149.06 63.192C148.1 63.192 147.244 62.984 146.492 62.568C145.74 62.136 145.14 61.552 144.692 60.816C144.26 60.064 144.044 59.208 144.044 58.248ZM145.172 58.272C145.172 59.008 145.34 59.68 145.676 60.288C146.028 60.88 146.492 61.352 147.068 61.704C147.66 62.056 148.316 62.232 149.036 62.232C149.756 62.232 150.404 62.056 150.98 61.704C151.572 61.352 152.036 60.88 152.372 60.288C152.724 59.68 152.9 59.008 152.9 58.272C152.9 57.536 152.724 56.872 152.372 56.28C152.036 55.672 151.572 55.192 150.98 54.84C150.404 54.472 149.756 54.288 149.036 54.288C148.3 54.288 147.636 54.48 147.044 54.864C146.468 55.232 146.012 55.72 145.676 56.328C145.34 56.936 145.172 57.584 145.172 58.272ZM159.61 63.192C159.066 63.192 158.498 63.096 157.906 62.904C157.314 62.696 156.834 62.368 156.466 61.92L156.994 61.176C157.314 61.512 157.69 61.784 158.122 61.992C158.57 62.184 159.042 62.28 159.538 62.28C159.906 62.28 160.25 62.232 160.57 62.136C160.906 62.024 161.178 61.84 161.386 61.584C161.594 61.328 161.698 60.984 161.698 60.552C161.698 60.104 161.57 59.76 161.314 59.52C161.074 59.28 160.762 59.088 160.378 58.944C160.01 58.784 159.618 58.64 159.202 58.512C158.514 58.288 157.946 57.984 157.498 57.6C157.066 57.216 156.85 56.672 156.85 55.968C156.85 55.456 156.97 55.008 157.21 54.624C157.466 54.24 157.81 53.944 158.242 53.736C158.674 53.512 159.162 53.4 159.706 53.4C160.202 53.4 160.69 53.48 161.17 53.64C161.666 53.8 162.114 54.072 162.514 54.456L162.01 55.248C161.754 54.896 161.41 54.656 160.978 54.528C160.562 54.4 160.194 54.328 159.874 54.312C159.602 54.312 159.314 54.368 159.01 54.48C158.722 54.592 158.474 54.76 158.266 54.984C158.074 55.192 157.978 55.472 157.978 55.824C157.978 56.192 158.082 56.496 158.29 56.736C158.498 56.96 158.762 57.144 159.082 57.288C159.418 57.432 159.762 57.568 160.114 57.696C160.578 57.84 161.01 58.016 161.41 58.224C161.826 58.416 162.162 58.68 162.418 59.016C162.69 59.336 162.826 59.768 162.826 60.312C162.826 60.856 162.706 61.352 162.466 61.8C162.226 62.232 161.866 62.576 161.386 62.832C160.922 63.072 160.33 63.192 159.61 63.192ZM166.238 63V44.76H167.342V56.112L167.27 55.704C167.59 55.048 168.102 54.496 168.806 54.048C169.526 53.584 170.35 53.352 171.278 53.352C172.158 53.352 172.87 53.616 173.414 54.144C173.958 54.656 174.238 55.328 174.254 56.16V63H173.102V56.472C173.086 55.864 172.894 55.36 172.526 54.96C172.158 54.56 171.622 54.352 170.918 54.336C170.294 54.336 169.71 54.496 169.166 54.816C168.622 55.136 168.182 55.568 167.846 56.112C167.526 56.656 167.366 57.272 167.366 57.96V63H166.238ZM177.607 58.248C177.607 57.336 177.823 56.504 178.255 55.752C178.703 55 179.303 54.408 180.055 53.976C180.823 53.528 181.679 53.304 182.623 53.304C183.583 53.304 184.439 53.528 185.191 53.976C185.943 54.408 186.535 55 186.967 55.752C187.399 56.504 187.615 57.336 187.615 58.248C187.615 59.16 187.399 59.992 186.967 60.744C186.535 61.496 185.935 62.096 185.167 62.544C184.415 62.976 183.567 63.192 182.623 63.192C181.663 63.192 180.807 62.984 180.055 62.568C179.303 62.136 178.703 61.552 178.255 60.816C177.823 60.064 177.607 59.208 177.607 58.248ZM178.735 58.272C178.735 59.008 178.903 59.68 179.239 60.288C179.591 60.88 180.055 61.352 180.631 61.704C181.223 62.056 181.879 62.232 182.599 62.232C183.319 62.232 183.967 62.056 184.543 61.704C185.135 61.352 185.599 60.88 185.935 60.288C186.287 59.68 186.463 59.008 186.463 58.272C186.463 57.536 186.287 56.872 185.935 56.28C185.599 55.672 185.135 55.192 184.543 54.84C183.967 54.472 183.319 54.288 182.599 54.288C181.863 54.288 181.199 54.48 180.607 54.864C180.031 55.232 179.575 55.72 179.239 56.328C178.903 56.936 178.735 57.584 178.735 58.272ZM196.148 63.192C195.252 63.192 194.412 62.96 193.628 62.496C192.844 62.016 192.268 61.4 191.9 60.648L192.092 60.24V67.512H190.964V53.544H191.972L192.092 56.616L191.876 55.92C192.292 55.168 192.9 54.552 193.7 54.072C194.5 53.576 195.372 53.328 196.316 53.328C197.212 53.328 198.02 53.544 198.74 53.976C199.46 54.408 200.028 55 200.444 55.752C200.876 56.488 201.092 57.336 201.092 58.296C201.092 59.24 200.868 60.088 200.42 60.84C199.988 61.576 199.396 62.152 198.644 62.568C197.908 62.984 197.076 63.192 196.148 63.192ZM195.956 62.256C196.692 62.256 197.356 62.08 197.948 61.728C198.556 61.376 199.036 60.904 199.388 60.312C199.756 59.704 199.94 59.032 199.94 58.296C199.94 57.544 199.764 56.872 199.412 56.28C199.06 55.672 198.588 55.192 197.996 54.84C197.42 54.488 196.764 54.312 196.028 54.312C195.324 54.312 194.684 54.472 194.108 54.792C193.532 55.112 193.068 55.544 192.716 56.088C192.364 56.632 192.156 57.248 192.092 57.936V58.704C192.14 59.36 192.34 59.96 192.692 60.504C193.06 61.048 193.524 61.48 194.084 61.8C194.66 62.104 195.284 62.256 195.956 62.256Z" fill="#FFFCF5"/>
</svg>
