<svg width="225" height="85" viewBox="0 0 225 85" fill="none" xmlns="http://www.w3.org/2000/svg">
<rect x="0.5" y="0.5" width="224" height="84" stroke="#FFFCF5"/>
<path d="M14.0625 34.6458C14.0625 27.441 14.0625 23.8386 15.4647 21.0867C16.698 18.6661 18.6661 16.698 21.0867 15.4647C23.8386 14.0625 27.441 14.0625 34.6458 14.0625H50.3542C57.559 14.0625 61.1614 14.0625 63.9133 15.4647C66.3339 16.698 68.302 18.6661 69.5353 21.0867C70.9375 23.8386 70.9375 27.441 70.9375 34.6458V50.3542C70.9375 57.559 70.9375 61.1614 69.5353 63.9133C68.302 66.3339 66.3339 68.302 63.9133 69.5353C61.1614 70.9375 57.559 70.9375 50.3542 70.9375H34.6458C27.441 70.9375 23.8386 70.9375 21.0867 69.5353C18.6661 68.302 16.698 66.3339 15.4647 63.9133C14.0625 61.1614 14.0625 57.559 14.0625 50.3542V34.6458Z" fill="#FFFCF5"/>
<path d="M26.25 54.2725V28.7037C26.25 28.5297 26.3213 28.4303 26.4877 28.4303C28.9439 28.4303 31.3991 28.2812 33.856 28.2812C37.8426 28.2812 42.1593 29.6707 43.6724 33.9218C44.029 34.9654 44.2191 36.0339 44.2191 37.1521C44.2191 39.289 43.7437 41.0532 42.793 42.4447C40.1372 46.3317 35.534 46.2713 31.4078 46.2713V54.2476C31.4401 54.4838 31.2426 54.5955 31.0513 54.5955H26.5352C26.3451 54.5955 26.25 54.4961 26.25 54.2725ZM31.4316 33.226V41.575C33.0676 41.6972 34.7797 41.7105 36.3517 41.1775C38.0871 40.6672 39.0375 39.136 39.0375 37.3011C39.0858 35.7377 38.2499 34.2375 36.827 33.6733C35.274 33.0151 33.108 32.9757 31.4316 33.226Z" fill="#937EFF"/>
<path d="M47.4411 34.8055H51.6123C51.8423 34.8076 52.0488 34.9737 52.1097 35.2056C52.4154 35.9151 52.4531 36.7708 52.4542 37.5368C53.1695 36.6661 54.0321 35.9406 54.9989 35.3966C56.0358 34.7832 57.2113 34.4723 58.4025 34.4965C58.6002 34.4669 58.7752 34.6498 58.747 34.8565V39.6972C58.747 39.8841 58.619 39.9772 58.3643 39.9772C56.5988 39.8498 53.85 40.2859 52.5671 41.7375V54.324C52.5671 54.564 52.4651 54.684 52.261 54.684H47.7855C47.5657 54.717 47.3718 54.5101 47.4028 54.2839V40.6173C47.4028 38.786 47.4407 36.8996 47.1732 35.0856C47.132 34.9186 47.2849 34.7634 47.4411 34.8055Z" fill="#937EFF"/>
<path d="M85.768 34L93.352 15.928H93.496L101.056 34H98.392L92.728 19.576L94.384 18.496L88.048 34H85.768ZM90.208 27.424H96.664L97.432 29.44H89.536L90.208 27.424ZM107.57 34.24C106.658 34.24 105.826 34.024 105.074 33.592C104.338 33.144 103.754 32.52 103.322 31.72C102.89 30.904 102.674 29.968 102.674 28.912C102.674 27.808 102.898 26.864 103.346 26.08C103.81 25.296 104.434 24.696 105.218 24.28C106.002 23.864 106.882 23.656 107.858 23.656C108.642 23.656 109.386 23.824 110.09 24.16C110.81 24.496 111.37 24.96 111.77 25.552L111.674 26.344V15.424H113.882V34H111.65V31.528L111.89 32.152C111.426 32.76 110.826 33.264 110.09 33.664C109.354 34.048 108.514 34.24 107.57 34.24ZM108.266 32.344C108.858 32.344 109.386 32.24 109.85 32.032C110.314 31.808 110.698 31.504 111.002 31.12C111.306 30.736 111.522 30.28 111.65 29.752V27.88C111.522 27.4 111.29 26.984 110.954 26.632C110.634 26.264 110.242 25.976 109.778 25.768C109.33 25.544 108.826 25.432 108.266 25.432C107.658 25.432 107.098 25.584 106.586 25.888C106.09 26.176 105.69 26.576 105.386 27.088C105.082 27.6 104.93 28.192 104.93 28.864C104.93 29.52 105.082 30.112 105.386 30.64C105.69 31.152 106.098 31.568 106.61 31.888C107.122 32.192 107.674 32.344 108.266 32.344ZM116.9 28.936C116.9 27.944 117.132 27.048 117.596 26.248C118.076 25.448 118.732 24.816 119.564 24.352C120.396 23.888 121.34 23.656 122.396 23.656C123.484 23.656 124.436 23.888 125.252 24.352C126.068 24.816 126.7 25.448 127.148 26.248C127.596 27.048 127.82 27.944 127.82 28.936C127.82 29.928 127.596 30.832 127.148 31.648C126.7 32.448 126.06 33.08 125.228 33.544C124.412 34.008 123.46 34.24 122.372 34.24C121.316 34.24 120.372 34.024 119.54 33.592C118.724 33.144 118.076 32.528 117.596 31.744C117.132 30.944 116.9 30.008 116.9 28.936ZM119.132 28.96C119.132 29.6 119.276 30.184 119.564 30.712C119.852 31.224 120.236 31.632 120.716 31.936C121.212 32.24 121.756 32.392 122.348 32.392C122.972 32.392 123.524 32.24 124.004 31.936C124.5 31.632 124.884 31.224 125.156 30.712C125.428 30.184 125.564 29.6 125.564 28.96C125.564 28.32 125.428 27.744 125.156 27.232C124.884 26.704 124.5 26.288 124.004 25.984C123.524 25.664 122.972 25.504 122.348 25.504C121.74 25.504 121.188 25.664 120.692 25.984C120.212 26.304 119.828 26.728 119.54 27.256C119.268 27.768 119.132 28.336 119.132 28.96ZM136.89 34.24C135.978 34.24 135.17 34.04 134.466 33.64C133.778 33.24 133.226 32.736 132.81 32.128L133.074 31.432V34H130.842V15.424H133.05V26.344L132.978 25.504C133.378 24.96 133.946 24.52 134.682 24.184C135.434 23.832 136.266 23.656 137.178 23.656C138.074 23.656 138.89 23.872 139.626 24.304C140.362 24.736 140.946 25.344 141.378 26.128C141.826 26.896 142.05 27.816 142.05 28.888C142.05 30.008 141.81 30.968 141.33 31.768C140.866 32.568 140.242 33.184 139.458 33.616C138.674 34.032 137.818 34.24 136.89 34.24ZM136.434 32.344C137.074 32.344 137.65 32.192 138.162 31.888C138.674 31.584 139.074 31.176 139.362 30.664C139.65 30.136 139.794 29.536 139.794 28.864C139.794 28.224 139.642 27.648 139.338 27.136C139.05 26.608 138.65 26.192 138.138 25.888C137.642 25.584 137.074 25.432 136.434 25.432C135.89 25.432 135.386 25.536 134.922 25.744C134.458 25.952 134.066 26.24 133.746 26.608C133.426 26.96 133.202 27.376 133.074 27.856V29.848C133.202 30.328 133.418 30.76 133.722 31.144C134.026 31.512 134.41 31.808 134.874 32.032C135.338 32.24 135.858 32.344 136.434 32.344ZM149.677 34.24C148.541 34.24 147.565 34.016 146.749 33.568C145.933 33.104 145.301 32.48 144.853 31.696C144.421 30.896 144.205 29.984 144.205 28.96C144.205 27.984 144.453 27.096 144.949 26.296C145.445 25.496 146.109 24.856 146.941 24.376C147.773 23.896 148.701 23.656 149.725 23.656C151.037 23.656 152.125 24.04 152.989 24.808C153.853 25.576 154.437 26.632 154.741 27.976L146.557 30.856L146.029 29.536L152.749 27.088L152.269 27.4C152.077 26.872 151.757 26.416 151.309 26.032C150.861 25.632 150.277 25.432 149.557 25.432C148.949 25.432 148.405 25.584 147.925 25.888C147.445 26.176 147.069 26.576 146.797 27.088C146.525 27.6 146.389 28.184 146.389 28.84C146.389 29.528 146.533 30.136 146.821 30.664C147.109 31.176 147.501 31.584 147.997 31.888C148.509 32.176 149.085 32.32 149.725 32.32C150.157 32.32 150.573 32.24 150.973 32.08C151.389 31.92 151.773 31.712 152.125 31.456L153.157 33.112C152.661 33.448 152.101 33.72 151.477 33.928C150.869 34.136 150.269 34.24 149.677 34.24Z" fill="#FFFCF5"/>
<path d="M91.648 45.96C92.704 45.96 93.624 46.144 94.408 46.512C95.208 46.864 95.824 47.4 96.256 48.12C96.704 48.824 96.928 49.712 96.928 50.784C96.928 51.424 96.824 52.048 96.616 52.656C96.424 53.248 96.104 53.784 95.656 54.264C95.224 54.744 94.664 55.128 93.976 55.416C93.304 55.704 92.488 55.848 91.528 55.848H88.888V63H87.712V45.96H91.648ZM91.528 54.72C92.36 54.72 93.048 54.592 93.592 54.336C94.152 54.064 94.584 53.728 94.888 53.328C95.208 52.912 95.432 52.48 95.56 52.032C95.704 51.584 95.776 51.168 95.776 50.784C95.776 50.24 95.688 49.744 95.512 49.296C95.336 48.848 95.072 48.464 94.72 48.144C94.384 47.808 93.968 47.552 93.472 47.376C92.976 47.184 92.408 47.088 91.768 47.088H88.888V54.72H91.528ZM101.409 53.616L101.529 56.496L101.385 56.136C101.593 55.56 101.921 55.064 102.369 54.648C102.817 54.232 103.313 53.912 103.857 53.688C104.417 53.464 104.953 53.352 105.465 53.352L105.417 54.456C104.697 54.456 104.041 54.616 103.449 54.936C102.873 55.256 102.409 55.688 102.057 56.232C101.721 56.76 101.553 57.36 101.553 58.032V63H100.425V53.616H101.409ZM112.333 63.192C111.357 63.192 110.493 62.976 109.741 62.544C108.989 62.112 108.397 61.528 107.965 60.792C107.549 60.04 107.341 59.2 107.341 58.272C107.341 57.36 107.565 56.528 108.013 55.776C108.461 55.024 109.061 54.424 109.813 53.976C110.581 53.528 111.429 53.304 112.357 53.304C113.477 53.304 114.413 53.632 115.165 54.288C115.933 54.944 116.485 55.8 116.821 56.856L108.613 60.024L108.277 59.208L115.789 56.28L115.549 56.616C115.277 55.976 114.861 55.424 114.301 54.96C113.757 54.496 113.085 54.264 112.285 54.264C111.565 54.264 110.917 54.44 110.341 54.792C109.765 55.144 109.301 55.616 108.949 56.208C108.613 56.8 108.445 57.472 108.445 58.224C108.445 58.928 108.605 59.584 108.925 60.192C109.261 60.8 109.725 61.288 110.317 61.656C110.909 62.024 111.589 62.208 112.357 62.208C112.869 62.208 113.357 62.112 113.821 61.92C114.301 61.728 114.725 61.48 115.093 61.176L115.669 61.992C115.221 62.344 114.701 62.632 114.109 62.856C113.533 63.08 112.941 63.192 112.333 63.192ZM120.933 53.616L121.053 56.232L120.885 55.992C121.205 55.176 121.733 54.536 122.469 54.072C123.221 53.592 124.037 53.352 124.917 53.352C125.445 53.352 125.917 53.456 126.333 53.664C126.765 53.856 127.109 54.128 127.365 54.48C127.637 54.816 127.797 55.208 127.845 55.656L127.701 55.8C128.037 55 128.565 54.392 129.285 53.976C130.005 53.56 130.781 53.352 131.613 53.352C132.509 53.352 133.221 53.616 133.749 54.144C134.277 54.656 134.549 55.328 134.565 56.16V63H133.437V56.4C133.421 55.84 133.245 55.368 132.909 54.984C132.573 54.584 132.061 54.368 131.372 54.336C130.749 54.336 130.173 54.496 129.645 54.816C129.117 55.136 128.685 55.56 128.349 56.088C128.029 56.616 127.853 57.208 127.821 57.864V63H126.693V56.4C126.677 55.84 126.493 55.368 126.141 54.984C125.805 54.584 125.293 54.368 124.605 54.336C123.965 54.336 123.373 54.496 122.829 54.816C122.301 55.136 121.877 55.576 121.557 56.136C121.237 56.68 121.077 57.288 121.077 57.96V63H119.949V53.616H120.933ZM138.839 53.616H139.967V63H138.839V53.616ZM138.599 50.16C138.599 49.936 138.687 49.752 138.863 49.608C139.039 49.448 139.231 49.368 139.439 49.368C139.663 49.368 139.855 49.448 140.015 49.608C140.175 49.752 140.255 49.936 140.255 50.16C140.255 50.4 140.175 50.6 140.015 50.76C139.855 50.904 139.663 50.976 139.439 50.976C139.231 50.976 139.039 50.896 138.863 50.736C138.687 50.576 138.599 50.384 138.599 50.16ZM148.31 63.192C147.334 63.192 146.47 62.976 145.718 62.544C144.966 62.112 144.374 61.528 143.942 60.792C143.526 60.04 143.318 59.2 143.318 58.272C143.318 57.36 143.542 56.528 143.99 55.776C144.438 55.024 145.038 54.424 145.79 53.976C146.558 53.528 147.406 53.304 148.334 53.304C149.454 53.304 150.39 53.632 151.142 54.288C151.91 54.944 152.462 55.8 152.798 56.856L144.59 60.024L144.254 59.208L151.766 56.28L151.526 56.616C151.254 55.976 150.838 55.424 150.278 54.96C149.734 54.496 149.062 54.264 148.262 54.264C147.542 54.264 146.894 54.44 146.318 54.792C145.742 55.144 145.278 55.616 144.926 56.208C144.59 56.8 144.422 57.472 144.422 58.224C144.422 58.928 144.582 59.584 144.902 60.192C145.238 60.8 145.702 61.288 146.294 61.656C146.886 62.024 147.566 62.208 148.334 62.208C148.846 62.208 149.334 62.112 149.798 61.92C150.278 61.728 150.702 61.48 151.07 61.176L151.646 61.992C151.198 62.344 150.678 62.632 150.086 62.856C149.51 63.08 148.918 63.192 148.31 63.192ZM156.909 53.616L157.029 56.496L156.885 56.136C157.093 55.56 157.421 55.064 157.869 54.648C158.317 54.232 158.813 53.912 159.357 53.688C159.917 53.464 160.453 53.352 160.965 53.352L160.917 54.456C160.197 54.456 159.541 54.616 158.949 54.936C158.373 55.256 157.909 55.688 157.557 56.232C157.221 56.76 157.053 57.36 157.053 58.032V63H155.925V53.616H156.909ZM167.833 63.192C166.857 63.192 165.993 62.976 165.241 62.544C164.489 62.112 163.897 61.528 163.465 60.792C163.049 60.04 162.841 59.2 162.841 58.272C162.841 57.36 163.065 56.528 163.513 55.776C163.961 55.024 164.561 54.424 165.313 53.976C166.081 53.528 166.929 53.304 167.857 53.304C168.977 53.304 169.913 53.632 170.665 54.288C171.433 54.944 171.985 55.8 172.321 56.856L164.113 60.024L163.777 59.208L171.289 56.28L171.049 56.616C170.777 55.976 170.361 55.424 169.801 54.96C169.257 54.496 168.585 54.264 167.785 54.264C167.065 54.264 166.417 54.44 165.841 54.792C165.265 55.144 164.801 55.616 164.449 56.208C164.113 56.8 163.945 57.472 163.945 58.224C163.945 58.928 164.105 59.584 164.425 60.192C164.761 60.8 165.225 61.288 165.817 61.656C166.409 62.024 167.089 62.208 167.857 62.208C168.369 62.208 168.857 62.112 169.321 61.92C169.801 61.728 170.225 61.48 170.593 61.176L171.169 61.992C170.721 62.344 170.201 62.632 169.609 62.856C169.033 63.08 168.441 63.192 167.833 63.192ZM187.32 45.96C188.376 45.96 189.296 46.144 190.08 46.512C190.88 46.864 191.496 47.4 191.928 48.12C192.376 48.824 192.6 49.712 192.6 50.784C192.6 51.424 192.496 52.048 192.288 52.656C192.096 53.248 191.776 53.784 191.328 54.264C190.896 54.744 190.336 55.128 189.648 55.416C188.976 55.704 188.16 55.848 187.2 55.848H184.56V63H183.384V45.96H187.32ZM187.2 54.72C188.032 54.72 188.72 54.592 189.264 54.336C189.824 54.064 190.256 53.728 190.56 53.328C190.88 52.912 191.104 52.48 191.232 52.032C191.376 51.584 191.448 51.168 191.448 50.784C191.448 50.24 191.36 49.744 191.184 49.296C191.008 48.848 190.744 48.464 190.392 48.144C190.056 47.808 189.64 47.552 189.144 47.376C188.648 47.184 188.08 47.088 187.44 47.088H184.56V54.72H187.2ZM197.081 53.616L197.201 56.496L197.057 56.136C197.265 55.56 197.593 55.064 198.041 54.648C198.489 54.232 198.985 53.912 199.529 53.688C200.089 53.464 200.625 53.352 201.137 53.352L201.089 54.456C200.369 54.456 199.713 54.616 199.121 54.936C198.545 55.256 198.081 55.688 197.729 56.232C197.393 56.76 197.225 57.36 197.225 58.032V63H196.097V53.616H197.081ZM203.013 58.248C203.013 57.336 203.229 56.504 203.661 55.752C204.109 55 204.709 54.408 205.461 53.976C206.229 53.528 207.085 53.304 208.029 53.304C208.989 53.304 209.845 53.528 210.597 53.976C211.349 54.408 211.941 55 212.373 55.752C212.805 56.504 213.021 57.336 213.021 58.248C213.021 59.16 212.805 59.992 212.373 60.744C211.941 61.496 211.341 62.096 210.573 62.544C209.821 62.976 208.973 63.192 208.029 63.192C207.069 63.192 206.213 62.984 205.461 62.568C204.709 62.136 204.109 61.552 203.661 60.816C203.229 60.064 203.013 59.208 203.013 58.248ZM204.141 58.272C204.141 59.008 204.309 59.68 204.645 60.288C204.997 60.88 205.461 61.352 206.037 61.704C206.629 62.056 207.285 62.232 208.005 62.232C208.725 62.232 209.373 62.056 209.949 61.704C210.541 61.352 211.005 60.88 211.341 60.288C211.693 59.68 211.869 59.008 211.869 58.272C211.869 57.536 211.693 56.872 211.341 56.28C211.005 55.672 210.541 55.192 209.949 54.84C209.373 54.472 208.725 54.288 208.005 54.288C207.269 54.288 206.605 54.48 206.013 54.864C205.437 55.232 204.981 55.72 204.645 56.328C204.309 56.936 204.141 57.584 204.141 58.272Z" fill="#FFFCF5"/>
</svg>
