<svg width="225" height="85" viewBox="0 0 225 85" fill="none" xmlns="http://www.w3.org/2000/svg">
<rect x="0.5" y="0.5" width="224" height="84" stroke="#FFFCF5"/>
<path d="M69.6599 16.331C69.6599 14.5456 67.6609 14.5456 66.7725 14.7687C68.0163 13.7868 69.4748 14.0249 69.9931 14.3224L82.0046 20.212C83.1491 20.7732 83.8751 21.9409 83.8751 23.2205V61.9657C83.8751 63.2625 83.1297 64.4426 81.962 64.9947L70.6594 70.339C69.882 70.6737 68.194 71.4995 66.7725 70.339C68.5494 70.6737 69.5118 69.4091 69.6599 68.5536V16.331Z" fill="#FFFCF5"/>
<path d="M66.9165 14.7365C67.8595 14.5501 69.6598 14.6365 69.6598 16.3309V29.6674L33.2432 57.2168C32.6067 57.6984 31.7109 57.6185 31.1687 57.0318L27.4155 52.9705C26.8275 52.3343 26.8686 51.3384 27.507 50.7533L66.7724 14.7687L66.9165 14.7365Z" fill="#CFCCC7"/>
<path d="M69.6598 55.4402L33.2432 27.8908C32.6067 27.4093 31.7109 27.4892 31.1687 28.0759L27.4155 32.1372C26.8275 32.7734 26.8686 33.7693 27.507 34.3544L66.7724 70.339V70.339C68.5493 70.6738 69.5118 69.4091 69.6598 68.5536V55.4402Z" fill="#E5E2D9"/>
<path d="M105.744 31.148L111.456 45.5L110.136 45.236L115.56 31.148H118.272L110.616 49.292L102.984 31.148H105.744ZM130.722 34.244C130.13 33.94 129.482 33.676 128.778 33.452C128.074 33.228 127.386 33.116 126.714 33.116C125.786 33.116 125.042 33.332 124.482 33.764C123.938 34.196 123.666 34.772 123.666 35.492C123.666 36.036 123.842 36.5 124.194 36.884C124.546 37.252 125.01 37.572 125.586 37.844C126.162 38.116 126.762 38.372 127.386 38.612C127.93 38.82 128.466 39.052 128.994 39.308C129.522 39.564 129.994 39.884 130.41 40.268C130.842 40.652 131.178 41.124 131.418 41.684C131.674 42.244 131.802 42.94 131.802 43.772C131.802 44.684 131.57 45.516 131.106 46.268C130.658 47.02 130.01 47.612 129.162 48.044C128.314 48.476 127.306 48.692 126.138 48.692C125.37 48.692 124.634 48.604 123.93 48.428C123.242 48.252 122.602 48.028 122.01 47.756C121.418 47.468 120.89 47.172 120.426 46.868L121.458 45.044C121.842 45.316 122.282 45.58 122.778 45.836C123.274 46.076 123.794 46.276 124.338 46.436C124.882 46.58 125.41 46.652 125.922 46.652C126.466 46.652 127.002 46.556 127.53 46.364C128.074 46.156 128.522 45.844 128.874 45.428C129.226 45.012 129.402 44.46 129.402 43.772C129.402 43.18 129.242 42.692 128.922 42.308C128.618 41.908 128.21 41.572 127.698 41.3C127.186 41.012 126.642 40.756 126.066 40.532C125.522 40.324 124.97 40.1 124.41 39.86C123.85 39.604 123.33 39.3 122.85 38.948C122.37 38.58 121.986 38.132 121.698 37.604C121.41 37.076 121.266 36.436 121.266 35.684C121.266 34.772 121.482 33.98 121.914 33.308C122.362 32.62 122.97 32.084 123.738 31.7C124.506 31.3 125.386 31.084 126.378 31.052C127.498 31.052 128.482 31.188 129.33 31.46C130.194 31.732 130.954 32.068 131.61 32.468L130.722 34.244ZM156.053 47.204C155.765 47.396 155.373 47.612 154.877 47.852C154.381 48.092 153.797 48.292 153.125 48.452C152.469 48.612 151.749 48.692 150.965 48.692C149.621 48.676 148.405 48.436 147.317 47.972C146.245 47.508 145.333 46.876 144.581 46.076C143.829 45.276 143.245 44.356 142.829 43.316C142.429 42.26 142.229 41.14 142.229 39.956C142.229 38.66 142.437 37.468 142.853 36.38C143.285 35.276 143.885 34.324 144.653 33.524C145.421 32.708 146.325 32.076 147.365 31.628C148.421 31.18 149.573 30.956 150.821 30.956C151.861 30.956 152.805 31.1 153.653 31.388C154.501 31.66 155.229 31.988 155.837 32.372L154.901 34.532C154.421 34.212 153.837 33.908 153.148 33.62C152.477 33.332 151.725 33.188 150.893 33.188C150.045 33.188 149.245 33.356 148.493 33.692C147.741 34.028 147.077 34.5 146.501 35.108C145.925 35.716 145.469 36.428 145.133 37.244C144.813 38.044 144.653 38.908 144.653 39.836C144.653 40.78 144.797 41.66 145.085 42.476C145.389 43.276 145.813 43.972 146.357 44.564C146.917 45.156 147.589 45.62 148.373 45.956C149.157 46.292 150.037 46.46 151.013 46.46C151.893 46.46 152.677 46.324 153.365 46.052C154.053 45.78 154.621 45.476 155.069 45.14L156.053 47.204ZM158.557 43.436C158.557 42.444 158.789 41.548 159.253 40.748C159.733 39.948 160.389 39.316 161.221 38.852C162.053 38.388 162.997 38.156 164.053 38.156C165.141 38.156 166.093 38.388 166.909 38.852C167.725 39.316 168.357 39.948 168.805 40.748C169.253 41.548 169.477 42.444 169.477 43.436C169.477 44.428 169.253 45.332 168.805 46.148C168.357 46.948 167.717 47.58 166.885 48.044C166.069 48.508 165.117 48.74 164.029 48.74C162.973 48.74 162.029 48.524 161.197 48.092C160.381 47.644 159.733 47.028 159.253 46.244C158.789 45.444 158.557 44.508 158.557 43.436ZM160.789 43.46C160.789 44.1 160.933 44.684 161.221 45.212C161.509 45.724 161.893 46.132 162.373 46.436C162.869 46.74 163.413 46.892 164.005 46.892C164.629 46.892 165.181 46.74 165.661 46.436C166.157 46.132 166.541 45.724 166.813 45.212C167.085 44.684 167.221 44.1 167.221 43.46C167.221 42.82 167.085 42.244 166.813 41.732C166.541 41.204 166.157 40.788 165.661 40.484C165.181 40.164 164.629 40.004 164.005 40.004C163.397 40.004 162.845 40.164 162.349 40.484C161.869 40.804 161.485 41.228 161.197 41.756C160.925 42.268 160.789 42.836 160.789 43.46ZM176.531 48.74C175.619 48.74 174.787 48.524 174.035 48.092C173.299 47.644 172.715 47.02 172.283 46.22C171.851 45.404 171.635 44.468 171.635 43.412C171.635 42.308 171.859 41.364 172.307 40.58C172.771 39.796 173.395 39.196 174.179 38.78C174.963 38.364 175.843 38.156 176.819 38.156C177.603 38.156 178.347 38.324 179.051 38.66C179.771 38.996 180.331 39.46 180.731 40.052L180.635 40.844V29.924H182.843V48.5H180.611V46.028L180.851 46.652C180.387 47.26 179.787 47.764 179.051 48.164C178.315 48.548 177.475 48.74 176.531 48.74ZM177.227 46.844C177.819 46.844 178.347 46.74 178.811 46.532C179.275 46.308 179.659 46.004 179.963 45.62C180.267 45.236 180.483 44.78 180.611 44.252V42.38C180.483 41.9 180.251 41.484 179.915 41.132C179.595 40.764 179.203 40.476 178.739 40.268C178.291 40.044 177.787 39.932 177.227 39.932C176.619 39.932 176.059 40.084 175.547 40.388C175.051 40.676 174.651 41.076 174.347 41.588C174.043 42.1 173.891 42.692 173.891 43.364C173.891 44.02 174.043 44.612 174.347 45.14C174.651 45.652 175.059 46.068 175.571 46.388C176.083 46.692 176.635 46.844 177.227 46.844ZM191.333 48.74C190.197 48.74 189.221 48.516 188.405 48.068C187.589 47.604 186.957 46.98 186.509 46.196C186.077 45.396 185.861 44.484 185.861 43.46C185.861 42.484 186.109 41.596 186.605 40.796C187.101 39.996 187.765 39.356 188.597 38.876C189.429 38.396 190.357 38.156 191.381 38.156C192.693 38.156 193.781 38.54 194.645 39.308C195.509 40.076 196.093 41.132 196.397 42.476L188.213 45.356L187.685 44.036L194.405 41.588L193.925 41.9C193.733 41.372 193.413 40.916 192.965 40.532C192.517 40.132 191.933 39.932 191.213 39.932C190.605 39.932 190.061 40.084 189.581 40.388C189.101 40.676 188.725 41.076 188.453 41.588C188.181 42.1 188.045 42.684 188.045 43.34C188.045 44.028 188.189 44.636 188.477 45.164C188.765 45.676 189.157 46.084 189.653 46.388C190.165 46.676 190.741 46.82 191.381 46.82C191.813 46.82 192.229 46.74 192.629 46.58C193.045 46.42 193.429 46.212 193.781 45.956L194.813 47.612C194.317 47.948 193.757 48.22 193.133 48.428C192.525 48.636 191.925 48.74 191.333 48.74Z" fill="#FFFCF5"/>
</svg>
