<svg width="225" height="85" viewBox="0 0 225 85" fill="none" xmlns="http://www.w3.org/2000/svg">
<rect x="0.5" y="0.5" width="224" height="84" stroke="#FFFCF5"/>
<path d="M8.0625 34.6458C8.0625 27.441 8.0625 23.8386 9.46466 21.0867C10.698 18.6661 12.6661 16.698 15.0867 15.4647C17.8386 14.0625 21.441 14.0625 28.6458 14.0625H44.3542C51.559 14.0625 55.1614 14.0625 57.9133 15.4647C60.3339 16.698 62.302 18.6661 63.5353 21.0867C64.9375 23.8386 64.9375 27.441 64.9375 34.6458V50.3542C64.9375 57.559 64.9375 61.1614 63.5353 63.9133C62.302 66.3339 60.3339 68.302 57.9133 69.5353C55.1614 70.9375 51.559 70.9375 44.3542 70.9375H28.6458C21.441 70.9375 17.8386 70.9375 15.0867 69.5353C12.6661 68.302 10.698 66.3339 9.46466 63.9133C8.0625 61.1614 8.0625 57.559 8.0625 50.3542V34.6458Z" fill="#FFFCF5"/>
<path d="M14.1581 56.1013V30.7574C14.14 30.5971 14.257 30.4492 14.4101 30.4386C16.7386 30.2694 19.0989 30.3196 21.4312 30.3191C25.9914 30.3191 30.6195 31.9705 32.8628 36.4359C33.8107 38.3355 34.2848 40.5206 34.2851 42.991C34.3129 44.7162 34.0633 46.434 33.5469 48.0718C33.1012 49.459 32.4178 50.7487 31.5306 51.8773C30.7042 52.9167 29.7259 53.8112 28.6322 54.5273C24.5217 57.2148 19.0405 56.7987 14.3741 56.4998C14.2301 56.4998 14.1581 56.367 14.1581 56.1013ZM19.1268 35.2205V51.7179C24.6191 51.7179 29.1932 49.3918 29.1003 43.1106C29.221 36.7435 24.4158 34.8818 19.1268 35.2205Z" fill="#937EFF"/>
<path d="M55.3636 56.5038H50.9577C50.7159 56.5384 50.6011 56.315 50.5348 56.1053C49.6357 51.4549 48.6941 46.876 47.8559 42.3574C46.8641 46.9526 45.8556 51.5368 44.7541 56.1053C44.7068 56.3711 44.578 56.5038 44.3664 56.5038H39.9605C39.7143 56.5316 39.5369 56.3876 39.4671 56.1451L34.8849 37.0177C34.8144 36.8053 34.9084 36.699 35.1669 36.6988H39.6081C39.8195 36.6988 39.937 36.7785 39.9605 36.938C40.9728 41.6321 41.8602 46.3359 42.6041 51.0843C43.5152 46.3809 44.5745 41.6783 45.5296 37.0974C45.5503 36.8428 45.6287 36.6988 45.882 36.6988H50.4995C50.6405 36.6988 50.7225 36.7923 50.7462 36.9778C51.7804 41.6579 52.5783 46.2572 53.3898 51.2437C54.4817 46.5478 55.1127 41.7304 56.1743 37.0177C56.2211 36.8053 56.3269 36.699 56.4916 36.6988H60.6155C60.8269 36.6988 60.9092 36.8184 60.8622 37.0575L55.7866 56.1452C55.7228 56.3564 55.5962 56.5345 55.3636 56.5038Z" fill="#937EFF"/>
<path d="M79.768 34L87.352 15.928H87.496L95.056 34H92.392L86.728 19.576L88.384 18.496L82.048 34H79.768ZM84.208 27.424H90.664L91.432 29.44H83.536L84.208 27.424ZM101.57 34.24C100.658 34.24 99.8258 34.024 99.0738 33.592C98.3378 33.144 97.7538 32.52 97.3218 31.72C96.8898 30.904 96.6738 29.968 96.6738 28.912C96.6738 27.808 96.8978 26.864 97.3458 26.08C97.8098 25.296 98.4338 24.696 99.2178 24.28C100.002 23.864 100.882 23.656 101.858 23.656C102.642 23.656 103.386 23.824 104.09 24.16C104.81 24.496 105.37 24.96 105.77 25.552L105.674 26.344V15.424H107.882V34H105.65V31.528L105.89 32.152C105.426 32.76 104.826 33.264 104.09 33.664C103.354 34.048 102.514 34.24 101.57 34.24ZM102.266 32.344C102.858 32.344 103.386 32.24 103.85 32.032C104.314 31.808 104.698 31.504 105.002 31.12C105.306 30.736 105.522 30.28 105.65 29.752V27.88C105.522 27.4 105.29 26.984 104.954 26.632C104.634 26.264 104.242 25.976 103.778 25.768C103.33 25.544 102.826 25.432 102.266 25.432C101.658 25.432 101.098 25.584 100.586 25.888C100.09 26.176 99.6898 26.576 99.3858 27.088C99.0818 27.6 98.9298 28.192 98.9298 28.864C98.9298 29.52 99.0818 30.112 99.3858 30.64C99.6898 31.152 100.098 31.568 100.61 31.888C101.122 32.192 101.674 32.344 102.266 32.344ZM110.9 28.936C110.9 27.944 111.132 27.048 111.596 26.248C112.076 25.448 112.732 24.816 113.564 24.352C114.396 23.888 115.34 23.656 116.396 23.656C117.484 23.656 118.436 23.888 119.252 24.352C120.068 24.816 120.7 25.448 121.148 26.248C121.596 27.048 121.82 27.944 121.82 28.936C121.82 29.928 121.596 30.832 121.148 31.648C120.7 32.448 120.06 33.08 119.228 33.544C118.412 34.008 117.46 34.24 116.372 34.24C115.316 34.24 114.372 34.024 113.54 33.592C112.724 33.144 112.076 32.528 111.596 31.744C111.132 30.944 110.9 30.008 110.9 28.936ZM113.132 28.96C113.132 29.6 113.276 30.184 113.564 30.712C113.852 31.224 114.236 31.632 114.716 31.936C115.212 32.24 115.756 32.392 116.348 32.392C116.972 32.392 117.524 32.24 118.004 31.936C118.5 31.632 118.884 31.224 119.156 30.712C119.428 30.184 119.564 29.6 119.564 28.96C119.564 28.32 119.428 27.744 119.156 27.232C118.884 26.704 118.5 26.288 118.004 25.984C117.524 25.664 116.972 25.504 116.348 25.504C115.74 25.504 115.188 25.664 114.692 25.984C114.212 26.304 113.828 26.728 113.54 27.256C113.268 27.768 113.132 28.336 113.132 28.96ZM130.89 34.24C129.978 34.24 129.17 34.04 128.466 33.64C127.778 33.24 127.226 32.736 126.81 32.128L127.074 31.432V34H124.842V15.424H127.05V26.344L126.978 25.504C127.378 24.96 127.946 24.52 128.682 24.184C129.434 23.832 130.266 23.656 131.178 23.656C132.074 23.656 132.89 23.872 133.626 24.304C134.362 24.736 134.946 25.344 135.378 26.128C135.826 26.896 136.05 27.816 136.05 28.888C136.05 30.008 135.81 30.968 135.33 31.768C134.866 32.568 134.242 33.184 133.458 33.616C132.674 34.032 131.818 34.24 130.89 34.24ZM130.434 32.344C131.074 32.344 131.65 32.192 132.162 31.888C132.674 31.584 133.074 31.176 133.362 30.664C133.65 30.136 133.794 29.536 133.794 28.864C133.794 28.224 133.642 27.648 133.338 27.136C133.05 26.608 132.65 26.192 132.138 25.888C131.642 25.584 131.074 25.432 130.434 25.432C129.89 25.432 129.386 25.536 128.922 25.744C128.458 25.952 128.066 26.24 127.746 26.608C127.426 26.96 127.202 27.376 127.074 27.856V29.848C127.202 30.328 127.418 30.76 127.722 31.144C128.026 31.512 128.41 31.808 128.874 32.032C129.338 32.24 129.858 32.344 130.434 32.344ZM143.677 34.24C142.541 34.24 141.565 34.016 140.749 33.568C139.933 33.104 139.301 32.48 138.853 31.696C138.421 30.896 138.205 29.984 138.205 28.96C138.205 27.984 138.453 27.096 138.949 26.296C139.445 25.496 140.109 24.856 140.941 24.376C141.773 23.896 142.701 23.656 143.725 23.656C145.037 23.656 146.125 24.04 146.989 24.808C147.853 25.576 148.437 26.632 148.741 27.976L140.557 30.856L140.029 29.536L146.749 27.088L146.269 27.4C146.077 26.872 145.757 26.416 145.309 26.032C144.861 25.632 144.277 25.432 143.557 25.432C142.949 25.432 142.405 25.584 141.925 25.888C141.445 26.176 141.069 26.576 140.797 27.088C140.525 27.6 140.389 28.184 140.389 28.84C140.389 29.528 140.533 30.136 140.821 30.664C141.109 31.176 141.501 31.584 141.997 31.888C142.509 32.176 143.085 32.32 143.725 32.32C144.157 32.32 144.573 32.24 144.973 32.08C145.389 31.92 145.773 31.712 146.125 31.456L147.157 33.112C146.661 33.448 146.101 33.72 145.477 33.928C144.869 34.136 144.269 34.24 143.677 34.24Z" fill="#FFFCF5"/>
<path d="M81.712 63V45.96H85.912C87.56 45.96 88.96 46.224 90.112 46.752C91.28 47.264 92.224 47.944 92.944 48.792C93.664 49.64 94.192 50.568 94.528 51.576C94.864 52.584 95.032 53.584 95.032 54.576C95.032 55.872 94.808 57.04 94.36 58.08C93.912 59.104 93.296 59.984 92.512 60.72C91.744 61.456 90.864 62.024 89.872 62.424C88.88 62.808 87.832 63 86.728 63H81.712ZM82.888 61.872H86.416C87.44 61.872 88.4 61.704 89.296 61.368C90.192 61.032 90.976 60.544 91.648 59.904C92.336 59.264 92.872 58.496 93.256 57.6C93.64 56.688 93.832 55.656 93.832 54.504C93.832 53.528 93.664 52.6 93.328 51.72C93.008 50.824 92.52 50.032 91.864 49.344C91.208 48.656 90.4 48.112 89.44 47.712C88.48 47.312 87.36 47.112 86.08 47.112H82.888V61.872ZM99.7919 53.616L99.9119 56.496L99.7679 56.136C99.9759 55.56 100.304 55.064 100.752 54.648C101.2 54.232 101.696 53.912 102.24 53.688C102.8 53.464 103.336 53.352 103.848 53.352L103.8 54.456C103.08 54.456 102.424 54.616 101.832 54.936C101.256 55.256 100.792 55.688 100.44 56.232C100.104 56.76 99.9359 57.36 99.9359 58.032V63H98.8079V53.616H99.7919ZM110.716 63.192C109.74 63.192 108.876 62.976 108.124 62.544C107.372 62.112 106.78 61.528 106.348 60.792C105.932 60.04 105.724 59.2 105.724 58.272C105.724 57.36 105.948 56.528 106.396 55.776C106.844 55.024 107.444 54.424 108.196 53.976C108.964 53.528 109.812 53.304 110.74 53.304C111.86 53.304 112.796 53.632 113.548 54.288C114.316 54.944 114.868 55.8 115.204 56.856L106.996 60.024L106.66 59.208L114.172 56.28L113.932 56.616C113.66 55.976 113.244 55.424 112.684 54.96C112.14 54.496 111.468 54.264 110.668 54.264C109.948 54.264 109.3 54.44 108.724 54.792C108.148 55.144 107.684 55.616 107.332 56.208C106.996 56.8 106.828 57.472 106.828 58.224C106.828 58.928 106.988 59.584 107.308 60.192C107.644 60.8 108.108 61.288 108.7 61.656C109.292 62.024 109.972 62.208 110.74 62.208C111.252 62.208 111.74 62.112 112.204 61.92C112.684 61.728 113.108 61.48 113.476 61.176L114.052 61.992C113.604 62.344 113.084 62.632 112.492 62.856C111.916 63.08 111.324 63.192 110.716 63.192ZM122.219 63.192C121.323 63.192 120.507 62.992 119.771 62.592C119.051 62.176 118.475 61.6 118.043 60.864C117.627 60.128 117.419 59.272 117.419 58.296C117.419 57.256 117.643 56.368 118.091 55.632C118.539 54.88 119.147 54.312 119.915 53.928C120.683 53.528 121.555 53.328 122.531 53.328C123.363 53.328 124.147 53.576 124.883 54.072C125.635 54.568 126.171 55.192 126.491 55.944L126.323 56.28L126.467 53.616H127.475V63H126.347V60.096L126.587 60.528C126.475 60.848 126.283 61.168 126.011 61.488C125.739 61.792 125.403 62.08 125.003 62.352C124.619 62.608 124.187 62.816 123.707 62.976C123.243 63.12 122.747 63.192 122.219 63.192ZM122.459 62.232C123.163 62.232 123.795 62.088 124.355 61.8C124.931 61.496 125.395 61.08 125.747 60.552C126.099 60.024 126.299 59.416 126.347 58.728V57.384C126.219 56.792 125.963 56.264 125.579 55.8C125.211 55.336 124.755 54.968 124.211 54.696C123.667 54.424 123.075 54.288 122.435 54.288C121.731 54.288 121.083 54.456 120.491 54.792C119.899 55.112 119.427 55.568 119.075 56.16C118.723 56.752 118.547 57.448 118.547 58.248C118.547 58.984 118.723 59.656 119.075 60.264C119.427 60.856 119.899 61.336 120.491 61.704C121.099 62.056 121.755 62.232 122.459 62.232ZM132.722 53.616L132.842 56.232L132.674 55.992C132.994 55.176 133.522 54.536 134.258 54.072C135.01 53.592 135.826 53.352 136.706 53.352C137.234 53.352 137.706 53.456 138.122 53.664C138.554 53.856 138.898 54.128 139.154 54.48C139.426 54.816 139.586 55.208 139.634 55.656L139.49 55.8C139.826 55 140.354 54.392 141.074 53.976C141.794 53.56 142.57 53.352 143.402 53.352C144.298 53.352 145.01 53.616 145.538 54.144C146.066 54.656 146.338 55.328 146.354 56.16V63H145.226V56.4C145.21 55.84 145.034 55.368 144.698 54.984C144.362 54.584 143.85 54.368 143.162 54.336C142.538 54.336 141.962 54.496 141.434 54.816C140.906 55.136 140.474 55.56 140.138 56.088C139.818 56.616 139.642 57.208 139.61 57.864V63H138.482V56.4C138.466 55.84 138.282 55.368 137.93 54.984C137.594 54.584 137.082 54.368 136.394 54.336C135.754 54.336 135.162 54.496 134.618 54.816C134.09 55.136 133.666 55.576 133.346 56.136C133.026 56.68 132.866 57.288 132.866 57.96V63H131.738V53.616H132.722ZM155.814 53.616L159.366 61.608L159.102 61.632L162.534 53.616H163.686L159.27 63.576L156.246 56.904L153.486 63.576L149.07 53.616H150.198L153.822 61.776L153.414 61.656L155.814 55.848L154.782 53.616H155.814ZM170.458 63.192C169.482 63.192 168.618 62.976 167.866 62.544C167.114 62.112 166.522 61.528 166.09 60.792C165.674 60.04 165.466 59.2 165.466 58.272C165.466 57.36 165.69 56.528 166.138 55.776C166.586 55.024 167.186 54.424 167.938 53.976C168.706 53.528 169.554 53.304 170.482 53.304C171.602 53.304 172.538 53.632 173.29 54.288C174.058 54.944 174.61 55.8 174.946 56.856L166.738 60.024L166.402 59.208L173.914 56.28L173.674 56.616C173.402 55.976 172.986 55.424 172.426 54.96C171.882 54.496 171.21 54.264 170.41 54.264C169.69 54.264 169.042 54.44 168.466 54.792C167.89 55.144 167.426 55.616 167.074 56.208C166.738 56.8 166.57 57.472 166.57 58.224C166.57 58.928 166.73 59.584 167.05 60.192C167.386 60.8 167.85 61.288 168.442 61.656C169.034 62.024 169.714 62.208 170.482 62.208C170.994 62.208 171.482 62.112 171.946 61.92C172.426 61.728 172.85 61.48 173.218 61.176L173.794 61.992C173.346 62.344 172.826 62.632 172.234 62.856C171.658 63.08 171.066 63.192 170.458 63.192ZM181.962 63.192C181.066 63.192 180.25 62.992 179.514 62.592C178.794 62.176 178.218 61.6 177.786 60.864C177.37 60.128 177.162 59.272 177.162 58.296C177.162 57.256 177.386 56.368 177.834 55.632C178.282 54.88 178.89 54.312 179.658 53.928C180.426 53.528 181.298 53.328 182.273 53.328C183.106 53.328 183.89 53.576 184.626 54.072C185.378 54.568 185.914 55.192 186.234 55.944L186.066 56.28L186.21 53.616H187.218V63H186.09V60.096L186.33 60.528C186.218 60.848 186.026 61.168 185.754 61.488C185.482 61.792 185.146 62.08 184.746 62.352C184.362 62.608 183.93 62.816 183.45 62.976C182.986 63.12 182.49 63.192 181.962 63.192ZM182.202 62.232C182.906 62.232 183.538 62.088 184.098 61.8C184.674 61.496 185.138 61.08 185.49 60.552C185.842 60.024 186.042 59.416 186.09 58.728V57.384C185.962 56.792 185.706 56.264 185.322 55.8C184.954 55.336 184.498 54.968 183.954 54.696C183.41 54.424 182.818 54.288 182.178 54.288C181.474 54.288 180.826 54.456 180.234 54.792C179.642 55.112 179.17 55.568 178.818 56.16C178.466 56.752 178.29 57.448 178.29 58.248C178.29 58.984 178.466 59.656 178.818 60.264C179.17 60.856 179.642 61.336 180.234 61.704C180.842 62.056 181.498 62.232 182.202 62.232ZM194.768 63.36L190.016 53.616H191.336L195.248 62.136L194.552 62.112L198.32 53.616H199.568L194.912 63.36H194.768ZM206.341 63.192C205.365 63.192 204.501 62.976 203.749 62.544C202.997 62.112 202.405 61.528 201.973 60.792C201.557 60.04 201.349 59.2 201.349 58.272C201.349 57.36 201.573 56.528 202.021 55.776C202.469 55.024 203.069 54.424 203.821 53.976C204.589 53.528 205.437 53.304 206.365 53.304C207.485 53.304 208.421 53.632 209.173 54.288C209.941 54.944 210.493 55.8 210.829 56.856L202.621 60.024L202.285 59.208L209.797 56.28L209.557 56.616C209.285 55.976 208.869 55.424 208.309 54.96C207.765 54.496 207.093 54.264 206.293 54.264C205.573 54.264 204.925 54.44 204.349 54.792C203.773 55.144 203.309 55.616 202.957 56.208C202.621 56.8 202.453 57.472 202.453 58.224C202.453 58.928 202.613 59.584 202.933 60.192C203.269 60.8 203.733 61.288 204.325 61.656C204.917 62.024 205.597 62.208 206.365 62.208C206.877 62.208 207.365 62.112 207.829 61.92C208.309 61.728 208.733 61.48 209.101 61.176L209.677 61.992C209.229 62.344 208.709 62.632 208.117 62.856C207.541 63.08 206.949 63.192 206.341 63.192ZM214.94 53.616L215.06 56.496L214.916 56.136C215.124 55.56 215.452 55.064 215.9 54.648C216.348 54.232 216.844 53.912 217.388 53.688C217.948 53.464 218.484 53.352 218.996 53.352L218.948 54.456C218.228 54.456 217.572 54.616 216.98 54.936C216.404 55.256 215.94 55.688 215.588 56.232C215.252 56.76 215.084 57.36 215.084 58.032V63H213.956V53.616H214.94Z" fill="#FFFCF5"/>
</svg>
