<svg width="225" height="85" viewBox="0 0 225 85" fill="none" xmlns="http://www.w3.org/2000/svg">
<rect x="0.5" y="0.5" width="224" height="84" stroke="#FFFCF5"/>
<path d="M30.5625 34.6458C30.5625 27.441 30.5625 23.8386 31.9647 21.0867C33.198 18.6661 35.1661 16.698 37.5867 15.4647C40.3386 14.0625 43.941 14.0625 51.1458 14.0625H66.8542C74.059 14.0625 77.6614 14.0625 80.4133 15.4647C82.8339 16.698 84.802 18.6661 86.0353 21.0867C87.4375 23.8386 87.4375 27.441 87.4375 34.6458V50.3542C87.4375 57.559 87.4375 61.1614 86.0353 63.9133C84.802 66.3339 82.8339 68.302 80.4133 69.5353C77.6614 70.9375 74.059 70.9375 66.8542 70.9375H51.1458C43.941 70.9375 40.3386 70.9375 37.5867 69.5353C35.1661 68.302 33.198 66.3339 31.9647 63.9133C30.5625 61.1614 30.5625 57.559 30.5625 50.3542V34.6458Z" fill="#FFFCF5"/>
<path d="M58.1229 49.8049H49.3094L47.5162 55.5182C47.4664 55.7305 47.271 55.8808 47.0583 55.8704H42.5944C42.3398 55.8704 42.2508 55.7269 42.3273 55.4399L49.958 32.8999C50.0344 32.6652 50.1107 32.3978 50.187 32.0977C50.2868 31.5756 50.3379 31.0449 50.3396 30.5129C50.3177 30.3557 50.4559 30.2169 50.6067 30.2389H56.673C56.8507 30.2389 56.9525 30.3042 56.9783 30.4346L65.6392 55.479C65.7155 55.7401 65.6392 55.8706 65.4102 55.8704H60.4502C60.2762 55.8901 60.1101 55.7709 60.0687 55.5965L58.1229 49.8049ZM50.6829 44.8743H56.7112C55.7208 41.4899 54.603 38.1499 53.6971 34.7391C52.7197 38.1557 51.6533 41.5585 50.6829 44.8743Z" fill="#937EFF"/>
<path d="M70.7895 34.3868C70.4003 34.4029 70.0123 34.3345 69.6506 34.1861C69.289 34.0378 68.962 33.8128 68.691 33.5259C68.4207 33.2266 68.2108 32.8755 68.0733 32.4927C67.9358 32.1099 67.8734 31.703 67.8897 31.2954C67.8758 30.8918 67.9451 30.4898 68.0931 30.1156C68.241 29.7413 68.4642 29.4033 68.7482 29.1236C69.0294 28.8467 69.3613 28.6298 69.7248 28.4854C70.0883 28.341 70.4761 28.272 70.8657 28.2823C71.7815 28.2823 72.5 28.5627 73.0214 29.1236C73.2846 29.4151 73.4892 29.7569 73.6234 30.1296C73.7576 30.5023 73.8188 30.8984 73.8035 31.2954C73.8195 31.7046 73.7551 32.1129 73.6142 32.4961C73.4733 32.8793 73.2587 33.2295 72.9832 33.5259C72.6954 33.817 72.3518 34.0438 71.9742 34.1919C71.5967 34.3401 71.1933 34.4065 70.7895 34.3868ZM68.1568 55.4789V36.7738C68.1568 36.5391 68.2581 36.4216 68.462 36.4216H73.155C73.3583 36.4216 73.46 36.539 73.4602 36.7738V55.4789C73.4602 55.74 73.3585 55.8704 73.155 55.8702H68.5002C68.2713 55.8702 68.1569 55.7398 68.1568 55.4789Z" fill="#937EFF"/>
<path d="M102.268 34L109.852 15.928H109.996L117.556 34H114.892L109.228 19.576L110.884 18.496L104.548 34H102.268ZM106.708 27.424H113.164L113.932 29.44H106.036L106.708 27.424ZM124.07 34.24C123.158 34.24 122.326 34.024 121.574 33.592C120.838 33.144 120.254 32.52 119.822 31.72C119.39 30.904 119.174 29.968 119.174 28.912C119.174 27.808 119.398 26.864 119.846 26.08C120.31 25.296 120.934 24.696 121.718 24.28C122.502 23.864 123.382 23.656 124.358 23.656C125.142 23.656 125.886 23.824 126.59 24.16C127.31 24.496 127.87 24.96 128.27 25.552L128.174 26.344V15.424H130.382V34H128.15V31.528L128.39 32.152C127.926 32.76 127.326 33.264 126.59 33.664C125.854 34.048 125.014 34.24 124.07 34.24ZM124.766 32.344C125.358 32.344 125.886 32.24 126.35 32.032C126.814 31.808 127.198 31.504 127.502 31.12C127.806 30.736 128.022 30.28 128.15 29.752V27.88C128.022 27.4 127.79 26.984 127.454 26.632C127.134 26.264 126.742 25.976 126.278 25.768C125.83 25.544 125.326 25.432 124.766 25.432C124.158 25.432 123.598 25.584 123.086 25.888C122.59 26.176 122.19 26.576 121.886 27.088C121.582 27.6 121.43 28.192 121.43 28.864C121.43 29.52 121.582 30.112 121.886 30.64C122.19 31.152 122.598 31.568 123.11 31.888C123.622 32.192 124.174 32.344 124.766 32.344ZM133.4 28.936C133.4 27.944 133.632 27.048 134.096 26.248C134.576 25.448 135.232 24.816 136.064 24.352C136.896 23.888 137.84 23.656 138.896 23.656C139.984 23.656 140.936 23.888 141.752 24.352C142.568 24.816 143.2 25.448 143.648 26.248C144.096 27.048 144.32 27.944 144.32 28.936C144.32 29.928 144.096 30.832 143.648 31.648C143.2 32.448 142.56 33.08 141.728 33.544C140.912 34.008 139.96 34.24 138.872 34.24C137.816 34.24 136.872 34.024 136.04 33.592C135.224 33.144 134.576 32.528 134.096 31.744C133.632 30.944 133.4 30.008 133.4 28.936ZM135.632 28.96C135.632 29.6 135.776 30.184 136.064 30.712C136.352 31.224 136.736 31.632 137.216 31.936C137.712 32.24 138.256 32.392 138.848 32.392C139.472 32.392 140.024 32.24 140.504 31.936C141 31.632 141.384 31.224 141.656 30.712C141.928 30.184 142.064 29.6 142.064 28.96C142.064 28.32 141.928 27.744 141.656 27.232C141.384 26.704 141 26.288 140.504 25.984C140.024 25.664 139.472 25.504 138.848 25.504C138.24 25.504 137.688 25.664 137.192 25.984C136.712 26.304 136.328 26.728 136.04 27.256C135.768 27.768 135.632 28.336 135.632 28.96ZM153.39 34.24C152.478 34.24 151.67 34.04 150.966 33.64C150.278 33.24 149.726 32.736 149.31 32.128L149.574 31.432V34H147.342V15.424H149.55V26.344L149.478 25.504C149.878 24.96 150.446 24.52 151.182 24.184C151.934 23.832 152.766 23.656 153.678 23.656C154.574 23.656 155.39 23.872 156.126 24.304C156.862 24.736 157.446 25.344 157.878 26.128C158.326 26.896 158.55 27.816 158.55 28.888C158.55 30.008 158.31 30.968 157.83 31.768C157.366 32.568 156.742 33.184 155.958 33.616C155.174 34.032 154.318 34.24 153.39 34.24ZM152.934 32.344C153.574 32.344 154.15 32.192 154.662 31.888C155.174 31.584 155.574 31.176 155.862 30.664C156.15 30.136 156.294 29.536 156.294 28.864C156.294 28.224 156.142 27.648 155.838 27.136C155.55 26.608 155.15 26.192 154.638 25.888C154.142 25.584 153.574 25.432 152.934 25.432C152.39 25.432 151.886 25.536 151.422 25.744C150.958 25.952 150.566 26.24 150.246 26.608C149.926 26.96 149.702 27.376 149.574 27.856V29.848C149.702 30.328 149.918 30.76 150.222 31.144C150.526 31.512 150.91 31.808 151.374 32.032C151.838 32.24 152.358 32.344 152.934 32.344ZM166.177 34.24C165.041 34.24 164.065 34.016 163.249 33.568C162.433 33.104 161.801 32.48 161.353 31.696C160.921 30.896 160.705 29.984 160.705 28.96C160.705 27.984 160.953 27.096 161.449 26.296C161.945 25.496 162.609 24.856 163.441 24.376C164.273 23.896 165.201 23.656 166.225 23.656C167.537 23.656 168.625 24.04 169.489 24.808C170.353 25.576 170.937 26.632 171.241 27.976L163.057 30.856L162.529 29.536L169.249 27.088L168.769 27.4C168.577 26.872 168.257 26.416 167.809 26.032C167.361 25.632 166.777 25.432 166.057 25.432C165.449 25.432 164.905 25.584 164.425 25.888C163.945 26.176 163.569 26.576 163.297 27.088C163.025 27.6 162.889 28.184 162.889 28.84C162.889 29.528 163.033 30.136 163.321 30.664C163.609 31.176 164.001 31.584 164.497 31.888C165.009 32.176 165.585 32.32 166.225 32.32C166.657 32.32 167.073 32.24 167.473 32.08C167.889 31.92 168.273 31.712 168.625 31.456L169.657 33.112C169.161 33.448 168.601 33.72 167.977 33.928C167.369 34.136 166.769 34.24 166.177 34.24Z" fill="#FFFCF5"/>
<path d="M104.212 45.96H105.388V63H104.212V45.96ZM110.245 44.76H111.373V63H110.245V44.76ZM115.636 44.76H116.764V63H115.636V44.76ZM123.979 63.264C123.099 63.264 122.395 63.008 121.867 62.496C121.339 61.968 121.059 61.288 121.027 60.456V53.616H122.155V60.12C122.187 60.728 122.379 61.232 122.731 61.632C123.099 62.032 123.643 62.248 124.363 62.28C124.971 62.28 125.539 62.12 126.067 61.8C126.595 61.48 127.019 61.048 127.339 60.504C127.675 59.944 127.843 59.312 127.843 58.608V53.616H128.971V63H127.963L127.843 60.048L128.011 60.696C127.851 61.176 127.563 61.616 127.147 62.016C126.747 62.4 126.267 62.704 125.707 62.928C125.163 63.152 124.587 63.264 123.979 63.264ZM135.446 63.192C134.902 63.192 134.334 63.096 133.742 62.904C133.15 62.696 132.67 62.368 132.302 61.92L132.83 61.176C133.15 61.512 133.526 61.784 133.958 61.992C134.406 62.184 134.878 62.28 135.374 62.28C135.742 62.28 136.086 62.232 136.406 62.136C136.742 62.024 137.014 61.84 137.222 61.584C137.43 61.328 137.534 60.984 137.534 60.552C137.534 60.104 137.406 59.76 137.15 59.52C136.91 59.28 136.598 59.088 136.214 58.944C135.846 58.784 135.454 58.64 135.038 58.512C134.35 58.288 133.782 57.984 133.334 57.6C132.902 57.216 132.686 56.672 132.686 55.968C132.686 55.456 132.806 55.008 133.046 54.624C133.302 54.24 133.646 53.944 134.078 53.736C134.51 53.512 134.998 53.4 135.542 53.4C136.038 53.4 136.526 53.48 137.006 53.64C137.502 53.8 137.95 54.072 138.35 54.456L137.846 55.248C137.59 54.896 137.246 54.656 136.814 54.528C136.398 54.4 136.03 54.328 135.71 54.312C135.438 54.312 135.15 54.368 134.846 54.48C134.558 54.592 134.31 54.76 134.102 54.984C133.91 55.192 133.814 55.472 133.814 55.824C133.814 56.192 133.918 56.496 134.126 56.736C134.334 56.96 134.598 57.144 134.918 57.288C135.254 57.432 135.598 57.568 135.95 57.696C136.414 57.84 136.846 58.016 137.246 58.224C137.662 58.416 137.998 58.68 138.254 59.016C138.526 59.336 138.662 59.768 138.662 60.312C138.662 60.856 138.542 61.352 138.302 61.8C138.062 62.232 137.702 62.576 137.222 62.832C136.758 63.072 136.166 63.192 135.446 63.192ZM143.01 49.488H144.162V53.736H147.066V54.648H144.162V63H143.01V54.648H141.018V53.736H143.01V49.488ZM150.862 53.616L150.982 56.496L150.838 56.136C151.046 55.56 151.374 55.064 151.822 54.648C152.27 54.232 152.766 53.912 153.31 53.688C153.87 53.464 154.406 53.352 154.918 53.352L154.87 54.456C154.15 54.456 153.494 54.616 152.902 54.936C152.326 55.256 151.862 55.688 151.51 56.232C151.174 56.76 151.006 57.36 151.006 58.032V63H149.878V53.616H150.862ZM161.852 63.192C160.956 63.192 160.14 62.992 159.404 62.592C158.684 62.176 158.108 61.6 157.676 60.864C157.26 60.128 157.052 59.272 157.052 58.296C157.052 57.256 157.276 56.368 157.724 55.632C158.172 54.88 158.78 54.312 159.548 53.928C160.316 53.528 161.188 53.328 162.164 53.328C162.996 53.328 163.78 53.576 164.516 54.072C165.268 54.568 165.804 55.192 166.124 55.944L165.956 56.28L166.1 53.616H167.108V63H165.98V60.096L166.22 60.528C166.108 60.848 165.916 61.168 165.644 61.488C165.372 61.792 165.036 62.08 164.636 62.352C164.252 62.608 163.82 62.816 163.34 62.976C162.876 63.12 162.38 63.192 161.852 63.192ZM162.092 62.232C162.796 62.232 163.428 62.088 163.988 61.8C164.564 61.496 165.028 61.08 165.38 60.552C165.732 60.024 165.932 59.416 165.98 58.728V57.384C165.852 56.792 165.596 56.264 165.212 55.8C164.844 55.336 164.388 54.968 163.844 54.696C163.3 54.424 162.708 54.288 162.068 54.288C161.364 54.288 160.716 54.456 160.124 54.792C159.532 55.112 159.06 55.568 158.708 56.16C158.356 56.752 158.18 57.448 158.18 58.248C158.18 58.984 158.356 59.656 158.708 60.264C159.06 60.856 159.532 61.336 160.124 61.704C160.732 62.056 161.388 62.232 162.092 62.232ZM172.306 49.488H173.458V53.736H176.362V54.648H173.458V63H172.306V54.648H170.314V53.736H172.306V49.488ZM178.263 58.248C178.263 57.336 178.479 56.504 178.911 55.752C179.359 55 179.959 54.408 180.711 53.976C181.479 53.528 182.335 53.304 183.279 53.304C184.239 53.304 185.095 53.528 185.847 53.976C186.599 54.408 187.191 55 187.623 55.752C188.055 56.504 188.271 57.336 188.271 58.248C188.271 59.16 188.055 59.992 187.623 60.744C187.191 61.496 186.591 62.096 185.823 62.544C185.071 62.976 184.223 63.192 183.279 63.192C182.319 63.192 181.463 62.984 180.711 62.568C179.959 62.136 179.359 61.552 178.911 60.816C178.479 60.064 178.263 59.208 178.263 58.248ZM179.391 58.272C179.391 59.008 179.559 59.68 179.895 60.288C180.247 60.88 180.711 61.352 181.287 61.704C181.879 62.056 182.535 62.232 183.255 62.232C183.975 62.232 184.623 62.056 185.199 61.704C185.791 61.352 186.255 60.88 186.591 60.288C186.943 59.68 187.119 59.008 187.119 58.272C187.119 57.536 186.943 56.872 186.591 56.28C186.255 55.672 185.791 55.192 185.199 54.84C184.623 54.472 183.975 54.288 183.255 54.288C182.519 54.288 181.855 54.48 181.263 54.864C180.687 55.232 180.231 55.72 179.895 56.328C179.559 56.936 179.391 57.584 179.391 58.272ZM192.604 53.616L192.724 56.496L192.58 56.136C192.788 55.56 193.116 55.064 193.564 54.648C194.012 54.232 194.508 53.912 195.052 53.688C195.612 53.464 196.148 53.352 196.66 53.352L196.612 54.456C195.892 54.456 195.236 54.616 194.644 54.936C194.068 55.256 193.604 55.688 193.252 56.232C192.916 56.76 192.748 57.36 192.748 58.032V63H191.62V53.616H192.604Z" fill="#FFFCF5"/>
</svg>
